<svg width="24" height="25" viewBox="0 0 24 25" fill="none" xmlns="http://www.w3.org/2000/svg">
<g clip-path="url(#clip0_374_7576)">
<path d="M18.9336 6.45605C18.2956 6.15658 17.6315 5.89941 16.9414 5.68457C16.2513 5.46973 15.5417 5.2972 14.8125 5.16699C14.7214 5.32324 14.6302 5.50228 14.5391 5.7041C14.4479 5.90592 14.3633 6.09147 14.2852 6.26074C13.5169 6.14355 12.752 6.08496 11.9902 6.08496C11.2285 6.08496 10.4701 6.14355 9.71484 6.26074C9.63672 6.09147 9.54883 5.90592 9.45117 5.7041C9.35352 5.50228 9.26562 5.32324 9.1875 5.16699C8.45833 5.2972 7.7487 5.46973 7.05859 5.68457C6.36849 5.89941 5.69792 6.16309 5.04688 6.47559C4.39583 7.45215 3.85547 8.42871 3.42578 9.40527C3.00911 10.3818 2.68685 11.3519 2.45898 12.3154C2.23112 13.279 2.09115 14.2425 2.03906 15.2061C1.98698 16.1566 2 17.1071 2.07812 18.0576C2.95052 18.6956 3.80664 19.223 4.64648 19.6396C5.48633 20.0563 6.31641 20.3949 7.13672 20.6553C7.34505 20.3688 7.54036 20.0758 7.72266 19.7764C7.90495 19.4769 8.07422 19.1709 8.23047 18.8584C7.93099 18.7542 7.63802 18.6305 7.35156 18.4873C7.0651 18.3441 6.79167 18.1943 6.53125 18.0381C6.59635 17.986 6.66471 17.9307 6.73633 17.8721C6.80794 17.8135 6.8763 17.7581 6.94141 17.7061C7.76172 18.0837 8.60156 18.3701 9.46094 18.5654C10.3073 18.7607 11.1569 18.8584 12.0098 18.8584C12.8626 18.8584 13.7188 18.7607 14.5781 18.5654C15.4245 18.3701 16.2513 18.0837 17.0586 17.7061C17.1237 17.7581 17.1921 17.8135 17.2637 17.8721C17.3353 17.9307 17.4036 17.986 17.4688 18.0381C17.2083 18.1943 16.9349 18.3441 16.6484 18.4873C16.362 18.6305 16.069 18.7542 15.7695 18.8584C15.9258 19.1709 16.0951 19.4769 16.2773 19.7764C16.4596 20.0758 16.6484 20.3688 16.8438 20.6553C17.6771 20.3949 18.5137 20.0596 19.3535 19.6494C20.1934 19.2393 21.0495 18.7087 21.9219 18.0576C22.026 16.9508 22.0326 15.8831 21.9414 14.8545C21.8633 13.8389 21.694 12.8493 21.4336 11.8857C21.1732 10.9222 20.8346 9.9847 20.418 9.07324C20.0013 8.1748 19.5065 7.30241 18.9336 6.45605ZM8.67969 15.7139C8.1849 15.7139 7.76172 15.5153 7.41016 15.1182C7.05859 14.721 6.88281 14.2425 6.88281 13.6826C6.88281 13.1227 7.05534 12.641 7.40039 12.2373C7.74544 11.8337 8.17188 11.6318 8.67969 11.6318C9.17448 11.6318 9.60091 11.8304 9.95898 12.2275C10.3171 12.6247 10.4896 13.1097 10.4766 13.6826C10.4766 14.2425 10.3008 14.721 9.94922 15.1182C9.59766 15.5153 9.17448 15.7139 8.67969 15.7139ZM15.3203 15.7139C14.8255 15.7139 14.4023 15.5153 14.0508 15.1182C13.6992 14.721 13.5234 14.2425 13.5234 13.6826C13.5234 13.1227 13.6992 12.641 14.0508 12.2373C14.4023 11.8337 14.8255 11.6318 15.3203 11.6318C15.8281 11.6318 16.2578 11.8304 16.6094 12.2275C16.9609 12.6247 17.1302 13.1097 17.1172 13.6826C17.1172 14.2425 16.9447 14.721 16.5996 15.1182C16.2546 15.5153 15.8281 15.7139 15.3203 15.7139Z" fill="white"/>
</g>
<defs>
<clipPath id="clip0_374_7576">
<rect width="20" height="20" fill="white" transform="matrix(1 0 0 -1 2 22.9404)"/>
</clipPath>
</defs>
</svg>
