<svg width="61" height="61" viewBox="0 0 61 61" fill="none" xmlns="http://www.w3.org/2000/svg">
<path d="M21.9068 22.1298C21.6628 18.9648 22.3942 15.8009 24.0026 13.0642C25.611 10.3274 28.0192 8.149 30.9031 6.82227C33.787 5.49554 37.0081 5.08413 40.1329 5.64341C43.2576 6.2027 46.1361 7.70583 48.3807 9.95049C50.6254 12.1952 52.1285 15.0736 52.6878 18.1984C53.2471 21.3231 52.8357 24.5442 51.509 27.4281C50.1822 30.312 48.0039 32.7202 45.2671 34.3286C42.5303 35.9371 39.3664 36.6685 36.2014 36.4244" stroke="#30F427" stroke-width="2.4" stroke-linecap="round" stroke-linejoin="round"/>
<path d="M20.6661 53.1999C16.546 53.1999 12.5946 51.5631 9.6812 48.6498C6.76782 45.7364 5.1311 41.785 5.1311 37.6649C5.1311 33.5447 6.76782 29.5934 9.6812 26.68C12.5946 23.7666 16.546 22.1299 20.6661 22.1299C24.7862 22.1299 28.7376 23.7666 31.651 26.68C34.5644 29.5934 36.2011 33.5447 36.2011 37.6649C36.2011 41.785 34.5644 45.7364 31.651 48.6498C28.7376 51.5631 24.7862 53.1999 20.6661 53.1999Z" stroke="#30F427" stroke-width="2.4" stroke-linecap="round" stroke-linejoin="round"/>
</svg>
