<svg width="61" height="61" viewBox="0 0 61 61" fill="none" xmlns="http://www.w3.org/2000/svg">
<path d="M32.7087 24.5671C30.2917 20.9789 24.9387 19.7494 20.7524 21.8211C16.5661 23.8928 15.1318 28.4811 17.5488 32.0693C19.9657 35.6576 25.3187 36.887 29.505 34.8153C33.6913 32.7436 35.1256 28.1554 32.7087 24.5671Z" stroke="#30F427" stroke-width="1.90476" stroke-linecap="round" stroke-linejoin="round"/>
<path d="M54.7305 44.2012L45.1341 51.0535C43.7234 52.0618 41.945 52.6144 40.1082 52.6151H14.8098C13.0036 52.6151 11.539 51.3597 11.539 49.8116C11.539 46.7152 14.4682 44.2012 18.0845 44.2012H35.6713" stroke="#30f427" stroke-width="1.90476" stroke-linecap="round" stroke-linejoin="round"/>
<path d="M42.951 40.8355L40.0061 43.3597C39.2251 44.0292 38.1658 44.4053 37.0612 44.4053C35.9567 44.4053 34.8974 44.0292 34.1164 43.3597C33.3353 42.6903 32.8966 41.7823 32.8966 40.8355C32.8966 39.8888 33.3353 38.9808 34.1164 38.3114L38.6868 34.3939C40.1592 33.1314 42.1563 32.422 44.2389 32.4216H54.7305" stroke="#30f427" stroke-width="1.90476" stroke-linecap="round" stroke-linejoin="round"/>
<path d="M8.85571 5.01758L21.2788 3.8565C23.1057 3.68495 24.9436 4.06804 26.4729 4.93913L47.5293 16.9447C49.0326 17.8019 49.439 19.5439 48.4368 20.8352C46.4324 23.4177 42.3669 24.1244 39.357 22.4083L24.7191 14.0623" stroke="#30f427" stroke-width="1.90476" stroke-linecap="round" stroke-linejoin="round"/>
<path d="M16.4889 13.3973L20.5728 12.6899C21.6559 12.5023 22.7807 12.6912 23.6997 13.2151C24.6188 13.739 25.2568 14.5549 25.4734 15.4833C25.6901 16.4118 25.4676 17.3768 24.8549 18.1659C24.2422 18.9551 23.2895 19.5039 22.2064 19.6915L15.8682 20.7893C13.8261 21.1432 11.7053 20.7874 9.97218 19.8L1.24243 14.824" stroke="#30f427" stroke-width="1.90476" stroke-linecap="round" stroke-linejoin="round"/>
</svg>
