<svg width="61" height="61" viewBox="0 0 61 61" fill="none" xmlns="http://www.w3.org/2000/svg">
<g clip-path="url(#clip0_2012_835)">
<path d="M44.9251 17.2492C45.0972 16.4125 45.1833 15.5517 45.1833 14.6668C45.1815 12.8629 44.8017 11.0793 44.0684 9.43117C43.3351 7.78301 42.2646 6.30679 40.9258 5.09768C39.5871 3.88857 38.0098 2.97341 36.2957 2.41118C34.5816 1.84895 32.7688 1.65214 30.974 1.83344C29.1792 2.01473 27.4423 2.5701 25.8752 3.46375C24.3082 4.35741 22.9458 5.5695 21.8759 7.02191C20.806 8.47432 20.0523 10.1348 19.6635 11.8963C19.2746 13.6578 19.2591 15.4813 19.6181 17.2492M37.4363 32.7432C37.4363 33.7705 37.8444 34.7558 38.5708 35.4822C39.2972 36.2086 40.2825 36.6167 41.3098 36.6167C42.3371 36.6167 43.3223 36.2086 44.0488 35.4822C44.7752 34.7558 45.1833 33.7705 45.1833 32.7432C45.1833 31.7159 44.7752 30.7307 44.0488 30.0042C43.3223 29.2778 42.3371 28.8697 41.3098 28.8697C40.2825 28.8697 39.2972 29.2778 38.5708 30.0042C37.8444 30.7307 37.4363 31.7159 37.4363 32.7432Z" stroke="#00EE00" stroke-width="2.30769" stroke-linecap="round" stroke-linejoin="round"/>
<path d="M14.1954 17.231H37.4365C44.7394 17.231 48.3934 17.231 50.6607 19.5034C52.9306 21.7707 52.9306 25.4248 52.9306 32.7328V37.9001C52.9306 45.2081 52.9306 48.8621 50.6607 51.132C48.3934 53.4019 44.7394 53.4019 37.4365 53.4019H21.9424C12.2044 53.4019 7.33412 53.4019 4.3102 50.3754C1.28627 47.3489 1.28369 42.476 1.28369 32.7328V27.5681C1.28369 17.8223 1.28369 12.952 4.3102 9.92294C6.74535 7.48779 10.3735 7.01264 16.7778 6.91968H21.9424" stroke="#00EE00" stroke-width="2.30769" stroke-linecap="round" stroke-linejoin="round"/>
</g>
<defs>
<clipPath id="clip0_2012_835">
<rect width="60" height="60" fill="white" transform="translate(0.130615 0.599854)"/>
</clipPath>
</defs>
</svg>
