<svg width="37" height="36" viewBox="0 0 37 36" fill="none" xmlns="http://www.w3.org/2000/svg">
<path fill-rule="evenodd" clip-rule="evenodd" d="M26.5553 10.3724C25.0256 9.67049 23.3853 9.15337 21.6702 8.8572C21.6389 8.85148 21.6077 8.86577 21.5917 8.89434C21.3807 9.26955 21.147 9.75905 20.9834 10.1438C19.1387 9.86763 17.3035 9.86763 15.4966 10.1438C15.3329 9.7505 15.0908 9.26955 14.8789 8.89434C14.8628 8.86672 14.8316 8.85244 14.8003 8.8572C13.0862 9.15243 11.4458 9.66954 9.91522 10.3724C9.90197 10.3781 9.89061 10.3876 9.88307 10.4C6.77167 15.0483 5.91933 19.5825 6.33746 24.0603C6.33935 24.0823 6.35165 24.1032 6.36868 24.1165C8.42149 25.6241 10.41 26.5393 12.3616 27.1459C12.3928 27.1554 12.4259 27.144 12.4458 27.1183C12.9074 26.4879 13.3189 25.8231 13.6718 25.1241C13.6926 25.0832 13.6727 25.0346 13.6301 25.0184C12.9774 24.7708 12.3559 24.4689 11.758 24.1261C11.7107 24.0984 11.7069 24.0308 11.7504 23.9984C11.8763 23.9041 12.0021 23.806 12.1222 23.707C12.144 23.6889 12.1743 23.6851 12.1998 23.6965C16.1276 25.4898 20.3798 25.4898 24.2612 23.6965C24.2868 23.6842 24.3171 23.688 24.3398 23.7061C24.4599 23.8051 24.5857 23.9041 24.7125 23.9984C24.756 24.0308 24.7532 24.0984 24.7059 24.1261C24.108 24.4755 23.4865 24.7708 22.8328 25.0174C22.7902 25.0336 22.7713 25.0832 22.7921 25.1241C23.1525 25.8221 23.564 26.4869 24.0172 27.1173C24.0361 27.144 24.0701 27.1554 24.1014 27.1459C26.0624 26.5393 28.0509 25.6241 30.1037 24.1165C30.1217 24.1032 30.1331 24.0832 30.1349 24.0613C30.6354 18.8844 29.2968 14.3874 26.5865 10.4009C26.5799 10.3876 26.5685 10.3781 26.5553 10.3724ZM14.258 21.3338C13.0755 21.3338 12.1011 20.2482 12.1011 18.9149C12.1011 17.5816 13.0566 16.496 14.258 16.496C15.4689 16.496 16.4338 17.5911 16.4149 18.9149C16.4149 20.2482 15.4594 21.3338 14.258 21.3338ZM20.0759 18.9149C20.0759 20.2482 21.0502 21.3338 22.2327 21.3338C23.4436 21.3338 24.3896 20.2482 24.3896 18.9149C24.4085 17.5911 23.4436 16.496 22.2327 16.496C21.0313 16.496 20.0759 17.5816 20.0759 18.9149Z" fill="black"/>
</svg>
