<svg width="63" height="61" viewBox="0 0 63 61" fill="none" xmlns="http://www.w3.org/2000/svg">
<path d="M2.13062 36.2458L13.3139 45.5622C14.9579 46.9332 17.0304 47.6845 19.171 47.6854H48.653C50.7579 47.6854 52.4647 45.9786 52.4647 43.8737C52.4647 39.664 49.0511 36.2458 44.8368 36.2458H24.3417" stroke="#00EE00" stroke-width="2.4" stroke-linecap="round" stroke-linejoin="round"/>
<path d="M15.8581 31.67L19.29 35.1019C20.2001 36.0121 21.4346 36.5234 22.7218 36.5234C24.009 36.5234 25.2435 36.0121 26.1537 35.1019C27.0639 34.1917 27.5752 32.9572 27.5752 31.67C27.5752 30.3828 27.0639 29.1484 26.1537 28.2382L20.8274 22.9119C19.1116 21.1955 16.7842 20.231 14.3572 20.2305H2.13062" stroke="#00EE00" stroke-width="2.4" stroke-linecap="round" stroke-linejoin="round"/>
<path d="M46.4976 9.03319C43.6809 4.1546 37.4427 2.48308 32.5641 5.29973C27.6855 8.11638 26.014 14.3546 28.8307 19.2332C31.6473 24.1118 37.8855 25.7833 42.7641 22.9666C47.6427 20.15 49.3142 13.9118 46.4976 9.03319Z" stroke="#30F427" stroke-width="2.4" stroke-linecap="round" stroke-linejoin="round"/>
</svg>
