<svg width="37" height="36" viewBox="0 0 37 36" fill="none" xmlns="http://www.w3.org/2000/svg">
<path d="M24.387 6.75H12.3992C9.08733 6.75 6.39307 9.38807 6.39307 12.6308V23.3692C6.39307 26.6119 9.08733 29.25 12.3992 29.25H24.387C27.6988 29.25 30.3931 26.6119 30.3931 23.3692V12.6308C30.3931 9.38807 27.6988 6.75 24.387 6.75ZM8.51183 12.6308C8.51183 10.5323 10.256 8.82457 12.3992 8.82457H24.387C26.5302 8.82457 28.2743 10.5323 28.2743 12.6308V23.3692C28.2743 25.4677 26.5302 27.1754 24.387 27.1754H12.3992C10.256 27.1754 8.51183 25.4677 8.51183 23.3692V12.6308Z" fill="black"/>
<path d="M18.3931 23.75C21.425 23.75 23.8931 21.1712 23.8931 18C23.8931 14.8288 21.4264 12.25 18.3931 12.25C15.3598 12.25 12.8931 14.8288 12.8931 18C12.8931 21.1712 15.3598 23.75 18.3931 23.75ZM18.3931 14.4321C20.2758 14.4321 21.8072 16.033 21.8072 18.0014C21.8072 19.9698 20.2758 21.5707 18.3931 21.5707C16.5103 21.5707 14.979 19.9698 14.979 18.0014C14.979 16.033 16.5103 14.4321 18.3931 14.4321Z" fill="black"/>
<path d="M24.3926 13.25C25.219 13.25 25.8926 12.5778 25.8926 11.75C25.8926 10.9222 25.2203 10.25 24.3926 10.25C23.5648 10.25 22.8926 10.9222 22.8926 11.75C22.8926 12.5778 23.5648 13.25 24.3926 13.25Z" fill="black"/>
</svg>
