<svg width="23" height="23" viewBox="0 0 23 23" fill="none" xmlns="http://www.w3.org/2000/svg">
<path d="M16.9039 17.6865C17.5639 17.6865 18.0795 17.4975 18.4508 17.1193C18.8221 16.7412 19.0077 16.1878 19.0077 15.459V8.15777C19.0077 7.42902 18.8152 6.87559 18.4302 6.49746C18.0452 6.11934 17.4883 5.93027 16.7596 5.93027H6.09643C5.43643 5.93027 4.9208 6.11934 4.54955 6.49746C4.1783 6.87559 3.99268 7.42902 3.99268 8.15777V15.459C3.99268 16.1878 4.18518 16.7412 4.57018 17.1193C4.95518 17.4975 5.51205 17.6865 6.2408 17.6865H16.9039ZM11.5002 12.324C11.3902 12.324 11.2767 12.2965 11.1599 12.2415C11.043 12.1865 10.9158 12.0903 10.7783 11.9528L6.13768 7.3534C6.16518 7.3534 6.18924 7.3534 6.20986 7.3534C6.23049 7.3534 6.25455 7.3534 6.28205 7.3534H16.7183C16.7458 7.3534 16.7733 7.3534 16.8008 7.3534C16.8283 7.3534 16.8489 7.3534 16.8627 7.3534L12.2221 11.9528C12.0845 12.0903 11.9608 12.1865 11.8508 12.2415C11.7408 12.2965 11.6239 12.324 11.5002 12.324ZM5.39518 8.38465L8.81893 11.7671L5.39518 15.1703V8.38465ZM17.6052 15.1496L14.2021 11.7671L17.6052 8.40527V15.1496ZM6.28205 16.2634C6.2408 16.2634 6.20299 16.2634 6.16861 16.2634C6.13424 16.2634 6.1033 16.2634 6.0758 16.2634L9.72643 12.654L10.0152 12.9428C10.2627 13.1903 10.5102 13.369 10.7577 13.479C11.0052 13.589 11.2527 13.644 11.5002 13.644C11.7614 13.644 12.0124 13.589 12.253 13.479C12.4936 13.369 12.7377 13.1903 12.9852 12.9428L13.2945 12.6334L16.9246 16.2634C16.897 16.2634 16.8661 16.2634 16.8317 16.2634C16.7974 16.2634 16.7596 16.2634 16.7183 16.2634H6.28205Z" fill="white"/>
</svg>
