<svg width="54" height="53" viewBox="0 0 54 53" fill="none" xmlns="http://www.w3.org/2000/svg">
<path fill-rule="evenodd" clip-rule="evenodd" d="M28.9344 26.4083C28.9344 31.9304 24.4882 36.407 19.0038 36.407C13.5194 36.407 9.07288 31.9304 9.07288 26.4083C9.07288 20.8861 13.5191 16.4092 19.0038 16.4092C24.4885 16.4092 28.9344 20.8861 28.9344 26.4083ZM39.8285 26.408C39.8285 31.6059 37.6054 35.8213 34.8631 35.8213C32.1207 35.8213 29.8976 31.6059 29.8976 26.408C29.8976 21.21 32.1204 16.9946 34.8627 16.9946C37.6051 16.9946 39.8282 21.2087 39.8282 26.408H39.8285ZM42.5384 34.8416C43.503 34.8416 44.2847 31.0648 44.2847 26.4088C44.2847 21.7513 43.5027 17.9759 42.5384 17.9759C41.5741 17.9759 40.7924 21.7517 40.7924 26.4088C40.7924 31.0658 41.5738 34.8416 42.5384 34.8416Z" fill="black"/>
</svg>
