<svg width="37" height="36" viewBox="0 0 37 36" fill="none" xmlns="http://www.w3.org/2000/svg">
<path d="M6.4279 17.639C6.48301 17.6119 6.53815 17.5862 6.59189 17.5618C7.5261 17.1371 8.47271 16.7393 9.41794 16.3416C9.46892 16.3416 9.55433 16.2834 9.60256 16.2645C9.67559 16.2334 9.74863 16.2036 9.82165 16.1725C9.9622 16.113 10.1027 16.0548 10.2419 15.9953C10.523 15.8776 10.8027 15.7599 11.0838 15.6422L12.7662 14.9347C13.8878 14.4639 15.0108 13.9918 16.1324 13.521C17.254 13.0502 18.377 12.5781 19.4986 12.1073C20.6202 11.6365 21.7431 11.1644 22.8647 10.6936C23.9863 10.2229 25.1093 9.75073 26.2309 9.27995C26.4803 9.17443 26.7504 9.0175 27.0177 8.97151C27.2423 8.93227 27.4614 8.85653 27.6873 8.81459C28.1159 8.73478 28.5885 8.7023 28.9991 8.87682C29.141 8.93769 29.2719 9.02292 29.3808 9.12979C29.9016 9.63574 29.8286 10.4664 29.7184 11.1779C28.9509 16.1373 28.1834 21.0981 27.4145 26.0575C27.3098 26.7379 27.1665 27.4847 26.6195 27.9149C26.1565 28.2788 25.4979 28.3194 24.9261 28.1652C24.3542 28.0096 23.8499 27.6836 23.3553 27.3629C21.3036 26.0291 19.2506 24.6952 17.1989 23.3613C16.7111 23.0448 16.1682 22.6308 16.1737 22.0559C16.1765 21.7096 16.3873 21.4011 16.6022 21.1265C18.3852 18.843 20.9577 17.2737 22.8716 15.0957C23.1417 14.7886 23.3539 14.2339 22.9832 14.0567C22.7628 13.9512 22.5092 14.0946 22.3081 14.2312C19.7783 15.9561 17.2499 17.6822 14.7201 19.4071C13.8947 19.9698 13.0294 20.5489 12.0346 20.6868C11.1444 20.8113 10.2488 20.5678 9.38763 20.3189C8.66562 20.1105 7.94496 19.8968 7.22708 19.6763C6.8454 19.5599 6.45132 19.4341 6.15646 19.1703C5.86159 18.9065 5.69213 18.4628 5.86988 18.1111C5.98149 17.8906 6.19782 17.7512 6.42517 17.6376L6.4279 17.639Z" fill="black"/>
</svg>
