<svg width="54" height="53" viewBox="0 0 54 53" fill="none" xmlns="http://www.w3.org/2000/svg">
<path d="M48.9167 25.5878C48.9249 28.7408 48.1882 31.8512 46.7667 34.6656C45.0812 38.0381 42.49 40.8747 39.2834 42.8577C36.0768 44.8408 32.3814 45.8919 28.6112 45.8933C25.4581 45.9016 22.3478 45.1649 19.5334 43.7433L5.91675 48.2822L10.4556 34.6656C9.03408 31.8512 8.29741 28.7408 8.30563 25.5878C8.30709 21.8176 9.3582 18.1222 11.3412 14.9156C13.3243 11.709 16.1609 9.11781 19.5334 7.43229C22.3478 6.01074 25.4581 5.27407 28.6112 5.28229H29.8056C34.7849 5.557 39.4879 7.65866 43.0141 11.1849C46.5403 14.7111 48.642 19.4141 48.9167 24.3934V25.5878Z" fill="black"/>
<path d="M15.9042 25.9391C15.9593 25.9114 16.0145 25.885 16.0682 25.8601C17.0024 25.4244 17.949 25.0165 18.8943 24.6085C18.9452 24.6085 19.0306 24.5489 19.0789 24.5294C19.1519 24.4975 19.2249 24.467 19.298 24.4351C19.4385 24.3741 19.5791 24.3144 19.7182 24.2533C19.9993 24.1326 20.279 24.0119 20.5601 23.8912L22.2425 23.1655C23.3641 22.6827 24.4871 22.1984 25.6087 21.7156C26.7303 21.2328 27.8533 20.7485 28.9749 20.2657C30.0965 19.7828 31.2195 19.2986 32.3411 18.8157C33.4627 18.3329 34.5857 17.8487 35.7073 17.3658C35.9567 17.2576 36.2267 17.0966 36.494 17.0495C36.7186 17.0092 36.9377 16.9315 37.1637 16.8885C37.5922 16.8067 38.0648 16.7733 38.4754 16.9523C38.6173 17.0148 38.7482 17.1022 38.8571 17.2118C39.3779 17.7307 39.3049 18.5826 39.1947 19.3125C38.4272 24.399 37.6597 29.487 36.8908 34.5735C36.7861 35.2714 36.6428 36.0373 36.0958 36.4786C35.6328 36.8518 34.9742 36.8934 34.4024 36.7352C33.8305 36.5757 33.3263 36.2413 32.8316 35.9125C30.7799 34.5444 28.7269 33.1763 26.6752 31.8082C26.1874 31.4836 25.6445 31.059 25.6501 30.4693C25.6528 30.1141 25.8636 29.7978 26.0786 29.5161C27.8615 27.174 30.4341 25.5645 32.348 23.3306C32.618 23.0157 32.8302 22.4468 32.4596 22.2651C32.2391 22.1568 31.9856 22.3039 31.7844 22.444C29.2546 24.2131 26.7262 25.9835 24.1964 27.7526C23.371 28.3298 22.5057 28.9237 21.5109 29.0652C20.6208 29.1928 19.7251 28.9431 18.864 28.6878C18.1419 28.4741 17.4213 28.2549 16.7034 28.0287C16.3217 27.9094 15.9276 27.7803 15.6328 27.5098C15.3379 27.2392 15.1684 26.7841 15.3462 26.4234C15.4578 26.1972 15.6741 26.0543 15.9015 25.9378L15.9042 25.9391Z" fill="white"/>
</svg>
