<svg width="61" height="61" viewBox="0 0 61 61" fill="none" xmlns="http://www.w3.org/2000/svg">
<path d="M46.0679 48.3997V42.9997C46.0679 40.1354 44.9301 37.3883 42.9047 35.363C40.8793 33.3376 38.1323 32.1997 35.2679 32.1997H13.6679C10.8036 32.1997 8.05656 33.3376 6.03117 35.363C4.00577 37.3883 2.86792 40.1354 2.86792 42.9997V48.3997" stroke="#30F427" stroke-width="2.4" stroke-linecap="round" stroke-linejoin="round"/>
<path d="M23.7929 24.1C29.7576 24.1 34.5929 19.2647 34.5929 13.3C34.5929 7.33532 29.7576 2.5 23.7929 2.5C17.8282 2.5 12.9929 7.33532 12.9929 13.3C12.9929 19.2647 17.8282 24.1 23.7929 24.1Z" stroke="#30F427" stroke-width="2.4" stroke-linecap="round" stroke-linejoin="round"/>
<path d="M18.8807 57.9873V44.5473H24.9095C26.4583 44.5473 27.6487 44.8609 28.4807 45.4881C29.3127 46.1025 29.7287 46.9473 29.7287 48.0225C29.7287 48.7521 29.5623 49.3665 29.2295 49.8657C28.9095 50.3649 28.4743 50.7489 27.9239 51.0177C27.3735 51.2865 26.7783 51.4209 26.1383 51.4209L26.4839 50.8449C27.2519 50.8449 27.9303 50.9793 28.5191 51.2481C29.1079 51.5169 29.5751 51.9137 29.9207 52.4385C30.2663 52.9505 30.4391 53.5905 30.4391 54.3585C30.4391 55.5105 30.0039 56.4065 29.1335 57.0465C28.2759 57.6737 26.9959 57.9873 25.2935 57.9873H18.8807ZM20.8007 56.4321H25.2167C26.2791 56.4321 27.0919 56.2529 27.6551 55.8945C28.2183 55.5361 28.4999 54.9729 28.4999 54.2049C28.4999 53.4241 28.2183 52.8545 27.6551 52.4961C27.0919 52.1377 26.2791 51.9585 25.2167 51.9585H20.6279V50.4033H24.7367C25.7095 50.4033 26.4647 50.2241 27.0023 49.8657C27.5399 49.5073 27.8087 48.9697 27.8087 48.2529C27.8087 47.5361 27.5399 46.9985 27.0023 46.6401C26.4647 46.2817 25.7095 46.1025 24.7367 46.1025H20.8007V56.4321Z" fill="#30F427"/>
</svg>
