<svg width="61" height="61" viewBox="0 0 61 61" fill="none" xmlns="http://www.w3.org/2000/svg">
<path d="M46.0679 48.5997V43.1997C46.0679 40.3353 44.9301 37.5883 42.9047 35.5629C40.8793 33.5375 38.1323 32.3997 35.2679 32.3997H13.6679C10.8036 32.3997 8.05656 33.5375 6.03117 35.5629C4.00577 37.5883 2.86792 40.3353 2.86792 43.1997V48.5997" stroke="#30F427" stroke-width="2.4" stroke-linecap="round" stroke-linejoin="round"/>
<path d="M23.7929 24.3C29.7576 24.3 34.5929 19.4646 34.5929 13.5C34.5929 7.53528 29.7576 2.69995 23.7929 2.69995C17.8282 2.69995 12.9929 7.53528 12.9929 13.5C12.9929 19.4646 17.8282 24.3 23.7929 24.3Z" stroke="#30F427" stroke-width="2.4" stroke-linecap="round" stroke-linejoin="round"/>
<path d="M17.0799 58.1875L23.1663 44.7475H25.0671L31.1727 58.1875H29.1567L23.7231 45.8227H24.4911L19.0575 58.1875H17.0799ZM19.6719 54.8275L20.1903 53.2915H27.7551L28.3119 54.8275H19.6719Z" fill="#30F427"/>
</svg>
