<svg width="61" height="61" viewBox="0 0 61 61" fill="none" xmlns="http://www.w3.org/2000/svg">
<g clip-path="url(#clip0_2012_874)">
<path d="M14.1054 26.6498C6.39977 26.6498 0.130371 32.9192 0.130371 40.6248C0.130371 48.3304 6.39977 54.5998 14.1054 54.5998C21.811 54.5998 28.0804 48.3304 28.0804 40.6248C28.0804 32.9192 21.811 26.6498 14.1054 26.6498ZM14.1054 52.4498C7.58657 52.4498 2.28037 47.1436 2.28037 40.6248C2.28037 34.106 7.58657 28.7998 14.1054 28.7998C20.6242 28.7998 25.9304 34.106 25.9304 40.6248C25.9304 47.1436 20.6242 52.4498 14.1054 52.4498ZM35.6054 2.99976C26.4141 2.99976 19.4804 6.23551 19.4804 10.5248V19.1248C19.4804 23.414 26.4141 26.6498 35.6054 26.6498C41.735 26.6498 46.8456 25.2071 49.5804 22.9754V27.7248C49.5804 30.2682 43.8399 33.0998 35.6054 33.0998C34.5411 33.0998 33.4919 33.0525 32.4814 32.9557C31.9267 32.9278 31.3656 33.3341 31.3097 33.9254C31.2559 34.5145 31.6881 35.0412 32.2793 35.0971C33.3543 35.1982 34.4745 35.2498 35.6054 35.2498C41.735 35.2498 46.8456 33.8071 49.5804 31.5754V36.3248C49.5804 38.8682 43.8399 41.6998 35.6054 41.6998C34.8959 41.6998 34.2014 41.6761 33.5199 41.6374C32.8598 41.5794 32.4148 42.0545 32.3825 42.6458C32.346 43.2392 32.7975 43.7487 33.3909 43.7831C34.1133 43.8283 34.855 43.8498 35.6054 43.8498C41.735 43.8498 46.8456 42.4071 49.5804 40.1754V44.9248C49.5804 47.4682 43.8399 50.2998 35.6054 50.2998C33.8058 50.2998 32.0557 50.1622 30.4045 49.8913C29.8305 49.7902 29.265 50.1901 29.1704 50.7771C29.0737 51.3619 29.4714 51.9144 30.0562 52.0112C31.8214 52.3036 33.6876 52.4498 35.6054 52.4498C44.7966 52.4498 51.7304 49.214 51.7304 44.9248V10.5248C51.7304 6.23551 44.7966 2.99976 35.6054 2.99976ZM35.6054 5.14976C43.8399 5.14976 49.5804 7.98131 49.5804 10.5248C49.5804 13.0682 43.8399 15.8998 35.6054 15.8998C27.3709 15.8998 21.6304 13.0682 21.6304 10.5248C21.6304 7.98131 27.3709 5.14976 35.6054 5.14976ZM35.6054 24.4998C27.3709 24.4998 21.6304 21.6682 21.6304 19.1248V14.3754C24.3652 16.605 29.4757 18.0498 35.6054 18.0498C41.735 18.0498 46.8456 16.6071 49.5804 14.3754V19.1248C49.5804 21.6682 43.8399 24.4998 35.6054 24.4998Z" fill="#00EE00"/>
</g>
<defs>
<clipPath id="clip0_2012_874">
<rect width="60" height="60" fill="white" transform="translate(0.130615 0.599854)"/>
</clipPath>
</defs>
</svg>
