<svg width="49" height="24" viewBox="0 0 49 24" fill="none" xmlns="http://www.w3.org/2000/svg">
<path d="M5.66704 5.9335H3.98704C2.94152 5.9335 2.41848 5.9335 2.0192 6.13706C1.66808 6.31597 1.38248 6.60129 1.20356 6.95268C1 7.35195 1 7.87498 1 8.92048V16.0136C1 17.0591 1 17.5815 1.20356 17.9808C1.38248 18.3319 1.6678 18.6178 2.0192 18.7967C2.4182 19 2.94068 19 3.98396 19H11.0831C12.1264 19 12.6483 19 13.047 18.7967C13.3981 18.6178 13.6846 18.3317 13.8635 17.9805C14.0668 17.5815 14.0668 17.0596 14.0668 16.0164V14.3336M15 9.66667V5M15 5H10.3332M15 5L8.46676 11.5331" stroke="white" stroke-width="1.5" stroke-linecap="round" stroke-linejoin="round"/>
<path d="M46.1741 0.72049C47.0484 0.72049 47.8198 1.49192 47.8198 2.41763V22.1148C47.8198 23.0405 47.0484 23.7605 46.1741 23.7605H26.3741C25.4998 23.7605 24.7798 23.0405 24.7798 22.1148V2.41763C24.7798 1.49192 25.4998 0.72049 26.3741 0.72049H46.1741ZM31.7226 20.4691V9.51478H28.3284V20.4691H31.7226ZM30.0255 7.97192C31.1055 7.97192 31.9798 7.09763 31.9798 6.01763C31.9798 4.93763 31.1055 4.01192 30.0255 4.01192C28.8941 4.01192 28.0198 4.93763 28.0198 6.01763C28.0198 7.09763 28.8941 7.97192 30.0255 7.97192ZM44.5284 20.4691V14.4519C44.5284 11.5205 43.8598 9.2062 40.4141 9.2062C38.7684 9.2062 37.6369 10.1319 37.1741 11.0062H37.1226V9.51478H33.8826V20.4691H37.2769V15.0691C37.2769 13.6291 37.5341 12.2405 39.3341 12.2405C41.0826 12.2405 41.0826 13.8862 41.0826 15.1205V20.4691H44.5284Z" fill="white"/>
</svg>
