<svg width="61" height="61" viewBox="0 0 61 61" fill="none" xmlns="http://www.w3.org/2000/svg">
<path d="M9.73052 12.0402V22.8887M9.73052 30.121V40.9696M9.73052 50.01V54.5998M45.7305 50.01C45.7305 50.01 45.7305 52.4815 45.7305 54.5998M34.9305 35.5453C33.021 35.5453 31.1896 34.7833 29.8394 33.427C28.4891 32.0707 27.7305 30.2311 27.7305 28.313C27.7305 26.3948 28.4891 24.5552 29.8394 23.1989C31.1896 21.8426 33.021 21.0806 34.9305 21.0806C36.8401 21.0806 38.6714 21.8426 40.0217 23.1989C41.3719 24.5552 42.1305 26.3948 42.1305 28.313C42.1305 30.2311 41.3719 32.0707 40.0217 33.427C38.6714 34.7833 36.8401 35.5453 34.9305 35.5453ZM6.13052 2.99976H49.3305C50.2853 2.99976 51.201 3.38074 51.8761 4.05891C52.5512 4.73707 52.9305 5.65686 52.9305 6.61593V46.3938C52.9305 47.3529 52.5512 48.2727 51.8761 48.9508C51.201 49.629 50.2853 50.01 49.3305 50.01H6.13052C5.17574 50.01 4.26006 49.629 3.58493 48.9508C2.9098 48.2727 2.53052 47.3529 2.53052 46.3938V6.61593C2.53052 5.65686 2.9098 4.73707 3.58493 4.05891C4.26006 3.38074 5.17574 2.99976 6.13052 2.99976Z" stroke="#00EE00" stroke-width="1.84615" stroke-linecap="round"/>
</svg>
