<svg width="32" height="24" viewBox="0 0 32 24" fill="none" xmlns="http://www.w3.org/2000/svg">
<g clip-path="url(#clip0_1587_12363)">
<path d="M7.505 0H24.49V24H7.5L7.505 0Z" fill="white"/>
<path d="M-0.984863 0H7.50514V24H-0.984863V0ZM24.4901 0H32.9801V24H24.4951L24.4901 0ZM10.0501 11.6L9.38514 11.82L12.4551 14.52C12.6901 15.205 12.3751 15.41 12.1751 15.77L15.5051 15.35L15.4251 18.7L16.1201 18.685L15.9651 15.355L19.3001 15.755C19.0951 15.32 18.9101 15.09 19.1001 14.395L22.1651 11.845L21.6301 11.645C21.1901 11.305 21.8201 10.015 21.9101 9.2C21.9101 9.2 20.1251 9.815 20.0101 9.49L19.5501 8.615L17.9201 10.405C17.7451 10.45 17.6701 10.38 17.6251 10.23L18.3751 6.49L17.1851 7.16C17.0851 7.205 16.9851 7.165 16.9251 7.05L15.7751 4.75L14.5951 7.14C14.5051 7.225 14.4151 7.235 14.3451 7.175L13.2001 6.54L13.8851 10.245C13.8301 10.395 13.7001 10.435 13.5501 10.355L11.9901 8.59C11.7901 8.915 11.6501 9.445 11.3801 9.565C11.1101 9.68 10.2051 9.34 9.60014 9.215C9.81014 9.955 10.4501 11.195 10.0501 11.6Z" fill="#D52B1E"/>
</g>
<defs>
<clipPath id="clip0_1587_12363">
<rect width="32" height="24" fill="white"/>
</clipPath>
</defs>
</svg>
