<svg width="37" height="26" viewBox="0 0 37 26" fill="none" xmlns="http://www.w3.org/2000/svg">
<g filter="url(#filter0_dd_2012_2677)">
<g clip-path="url(#clip0_2012_2677)">
<rect x="2.15381" y="1.36035" width="32.0948" height="21.3481" rx="1.88793" fill="white"/>
<path d="M34.2489 1.36035H2.15405V22.7085H34.2489V1.36035Z" fill="#FF0000"/>
<path d="M14.992 1.36035H2.15405V22.7085H14.992V1.36035Z" fill="#006600"/>
<path fill-rule="evenodd" clip-rule="evenodd" d="M19.1773 15.3449C17.5613 15.2963 10.1512 10.6814 10.1003 9.94647L10.5095 9.26562C11.2446 10.3312 18.82 14.8193 19.564 14.6603L19.1773 15.3447" fill="#FFFF00"/>
<path d="M19.1773 15.3449C17.5613 15.2963 10.1512 10.6814 10.1003 9.94647L10.5095 9.26562C11.2446 10.3312 18.82 14.8193 19.564 14.6603L19.1773 15.3447" stroke="#000008" stroke-width="0.0306506" stroke-linecap="round" stroke-linejoin="round"/>
<path fill-rule="evenodd" clip-rule="evenodd" d="M10.4222 9.1736C10.2773 9.56287 12.3559 10.8451 14.8568 12.3627C17.3576 13.8802 19.514 14.8181 19.6739 14.6836C19.6836 14.6662 19.7525 14.5479 19.7462 14.5489C19.7162 14.5939 19.6433 14.6082 19.5295 14.5754C18.8539 14.381 17.0917 13.5739 14.9093 12.2535C12.7269 10.933 10.8282 9.71607 10.5331 9.19902C10.5126 9.1632 10.4979 9.09782 10.5009 9.04698L10.4937 9.04688L10.4309 9.15645L10.4223 9.17364L10.4222 9.1736ZM19.2141 15.3667C19.1867 15.4163 19.1356 15.418 19.0385 15.4073C18.4341 15.3406 16.5999 14.4507 14.4296 13.1544C11.9043 11.6462 9.81864 10.2719 10.0449 9.91268L10.1065 9.80409L10.1186 9.80786C9.91513 10.4166 14.2347 12.8808 14.489 13.0379C16.9883 14.5829 19.0954 15.485 19.2818 15.2506L19.214 15.367V15.3669L19.2141 15.3667Z" fill="#FFFF00" stroke="#000008" stroke-width="0.0306506" stroke-linecap="round" stroke-linejoin="round"/>
<path fill-rule="evenodd" clip-rule="evenodd" d="M15.0014 10.3909C16.6188 10.3782 18.6147 10.1704 19.7634 9.71365L19.5159 9.31248C18.837 9.68739 16.8301 9.93392 14.9877 9.9708C12.8087 9.9508 11.2706 9.74835 10.5 9.23242L10.2664 9.65962C11.683 10.2577 13.1347 10.3847 15.0014 10.3909Z" fill="#FFFF00" stroke="#000008" stroke-width="0.0306506" stroke-linecap="round" stroke-linejoin="round"/>
<path fill-rule="evenodd" clip-rule="evenodd" d="M19.8298 9.72229C19.7903 9.78537 19.0412 10.0431 17.9376 10.2333C17.1894 10.3471 16.2134 10.4444 14.9954 10.4456C13.8382 10.4467 12.8929 10.3645 12.1773 10.2677C11.0189 10.0865 10.421 9.83436 10.2 9.74526C10.2211 9.70332 10.2347 9.67391 10.2551 9.63474C10.8913 9.88751 11.492 10.0399 12.1957 10.1479C12.9066 10.244 13.8405 10.3274 14.992 10.3263C16.2043 10.3251 17.1696 10.2204 17.9135 10.11C19.0451 9.92785 19.6632 9.69349 19.75 9.58466L19.83 9.72229H19.8298H19.8298ZM19.6126 9.31547C19.4899 9.41375 18.8788 9.62999 17.8036 9.80132C17.086 9.90393 16.1736 9.99577 15.0078 9.9969C13.9004 9.99798 12.9956 9.92351 12.3073 9.82349C11.2154 9.6812 10.6342 9.42453 10.4247 9.34969C10.4455 9.31373 10.4667 9.27805 10.4885 9.24223C10.6516 9.32413 11.2124 9.55129 12.3193 9.70775C12.9997 9.80401 13.9059 9.87574 15.0079 9.87461C16.1681 9.87343 17.0702 9.77982 17.7832 9.67777C18.864 9.5294 19.4456 9.25362 19.5339 9.18457L19.6126 9.31538L19.6126 9.31547Z" fill="#FFFF00" stroke="#000008" stroke-width="0.0306506" stroke-linecap="round" stroke-linejoin="round"/>
<path fill-rule="evenodd" clip-rule="evenodd" d="M9.68954 12.3348C10.6844 12.8687 12.8939 13.1377 14.9849 13.1562C16.8887 13.1593 19.3689 12.8626 20.2964 12.3722L20.2709 11.8379C19.9807 12.2903 17.3228 12.7243 14.9642 12.7065C12.6056 12.6888 10.4154 12.3253 9.6853 11.8548L9.68955 12.3347" fill="#FFFF00"/>
<path d="M9.68954 12.3348C10.6844 12.8687 12.8939 13.1377 14.9849 13.1562C16.8887 13.1593 19.3689 12.8626 20.2964 12.3722L20.2709 11.8379C19.9807 12.2903 17.3228 12.7243 14.9642 12.7065C12.6056 12.6888 10.4154 12.3253 9.6853 11.8548L9.68955 12.3347" stroke="#000008" stroke-width="0.0306506" stroke-linecap="round" stroke-linejoin="round"/>
<path fill-rule="evenodd" clip-rule="evenodd" d="M20.3469 12.2583L20.3469 12.3857C20.2075 12.552 19.3335 12.8033 18.2374 12.9803C17.4032 13.1079 16.3156 13.2042 14.9604 13.2042C13.6729 13.2042 12.6462 13.1126 11.85 12.9906C10.5914 12.8078 9.78635 12.4875 9.62476 12.392L9.62546 12.2433C10.1109 12.5653 11.426 12.8009 11.8677 12.873C12.6587 12.9941 13.6793 13.085 14.9604 13.085C16.3092 13.085 17.3907 12.9894 18.2197 12.8627C19.006 12.7493 20.1263 12.4546 20.3468 12.2583L20.3469 12.2583ZM20.3474 11.805L20.3475 11.9324C20.2081 12.0986 19.334 12.35 18.2379 12.527C17.4037 12.6546 16.3162 12.7508 14.9609 12.7508C13.6735 12.7508 12.6468 12.6593 11.8505 12.5373C10.5919 12.3545 9.78689 12.0343 9.62529 11.9387L9.626 11.79C10.1114 12.112 11.4266 12.3476 11.8682 12.4196C12.6592 12.5408 13.6798 12.6318 14.9609 12.6318C16.3097 12.6318 17.3912 12.5361 18.2202 12.4093C19.0066 12.2959 20.1268 12.0012 20.3474 11.8049L20.3474 11.805Z" fill="#FFFF00" stroke="#000008" stroke-width="0.0306506" stroke-linecap="round" stroke-linejoin="round"/>
<path fill-rule="evenodd" clip-rule="evenodd" d="M14.9804 15.252C12.6925 15.2384 10.7321 14.6297 10.3181 14.5291L10.62 15.0006C11.3512 15.3075 13.2637 15.7649 15.0024 15.7142C16.7411 15.6636 18.2605 15.5292 19.3313 15.0091L19.6408 14.5205C18.9111 14.8634 16.4277 15.2484 14.9804 15.252Z" fill="#FFFF00" stroke="#000008" stroke-width="0.0306506" stroke-linecap="round" stroke-linejoin="round"/>
<path fill-rule="evenodd" clip-rule="evenodd" d="M19.4476 14.8998C19.4021 14.9691 19.3557 15.0376 19.3087 15.1041C18.8036 15.2818 18.0078 15.4684 17.672 15.5228C16.986 15.6638 15.9247 15.768 14.9828 15.7684C12.956 15.7388 11.297 15.343 10.5165 15.0053L10.4535 14.8973L10.4638 14.881L10.5706 14.9223C11.9586 15.4178 13.5175 15.6155 14.9942 15.651C15.9323 15.6543 16.8715 15.5437 17.6309 15.4082C18.7955 15.1754 19.2664 14.9999 19.4108 14.9203L19.4476 14.8998ZM19.7159 14.4581C19.7171 14.4595 19.7183 14.4608 19.7194 14.4622C19.6854 14.5195 19.6504 14.5778 19.6145 14.6364C19.3451 14.7324 18.6141 14.9458 17.5466 15.0948C16.8432 15.1904 16.406 15.2829 15.0068 15.3101C12.385 15.2435 10.6874 14.732 10.2841 14.6058L10.2244 14.4915C11.7438 14.8872 13.2959 15.1635 15.0069 15.1917C16.287 15.1645 16.8316 15.0705 17.5291 14.9756C18.7739 14.7825 19.4011 14.578 19.5894 14.519C19.587 14.5156 19.5842 14.512 19.5811 14.5083L19.7161 14.458L19.7159 14.4581Z" fill="#FFFF00" stroke="#000008" stroke-width="0.0294203" stroke-linecap="round" stroke-linejoin="round"/>
<path fill-rule="evenodd" clip-rule="evenodd" d="M19.7446 11.9133C19.7521 13.415 18.9818 14.7625 18.3615 15.357C17.4838 16.1981 16.3201 16.7391 14.9611 16.764C13.4435 16.7918 12.0126 15.8047 11.6288 15.3711C10.8784 14.5233 10.2675 13.4467 10.2479 11.9958C10.3409 10.3569 10.9857 9.21521 11.9205 8.43232C12.8553 7.64943 14.0999 7.26815 15.1365 7.29542C16.3324 7.32691 17.7295 7.91228 18.6948 9.07436C19.3272 9.83574 19.6011 10.662 19.7446 11.9133ZM14.974 6.77148C17.8884 6.77148 20.2854 9.13782 20.2854 12.0393C20.2854 14.9407 17.8884 17.3072 14.974 17.3072C12.0595 17.3072 9.68237 14.9408 9.68237 12.0393C9.68237 9.13782 12.0595 6.77148 14.974 6.77148Z" fill="#FFFF00" stroke="#000008" stroke-width="0.0306506" stroke-linecap="round" stroke-linejoin="round"/>
<path fill-rule="evenodd" clip-rule="evenodd" d="M14.9874 6.75293C17.9045 6.75293 20.2836 9.127 20.2836 12.0378C20.2836 14.9485 17.9044 17.3225 14.9874 17.3225C12.0703 17.3225 9.69116 14.9485 9.69116 12.0378C9.69116 9.127 12.0704 6.75293 14.9874 6.75293ZM9.80772 12.0378C9.80772 14.8803 12.1472 17.2063 14.9874 17.2063C17.8276 17.2063 20.1671 14.8803 20.1671 12.0378C20.1671 9.19518 17.8276 6.86919 14.9874 6.86919C12.1472 6.86919 9.80772 9.19529 9.80772 12.0378Z" fill="#FFFF00" stroke="#000008" stroke-width="0.0306506" stroke-linecap="round" stroke-linejoin="round"/>
<path fill-rule="evenodd" clip-rule="evenodd" d="M14.9905 7.19336C17.6506 7.19336 19.8417 9.37199 19.8417 12.0343C19.8417 14.6966 17.6506 16.8751 14.9905 16.8751C12.3303 16.8751 10.1392 14.6966 10.1392 12.0343C10.1392 9.37199 12.3304 7.19336 14.9905 7.19336ZM10.2557 12.0342C10.2557 14.6326 12.3942 16.7588 14.9905 16.7588C17.5867 16.7588 19.7252 14.6326 19.7252 12.0342C19.7252 9.43584 17.5868 7.30962 14.9905 7.30962C12.3942 7.30962 10.2557 9.43584 10.2557 12.0342Z" fill="#FFFF00" stroke="#000008" stroke-width="0.0306506" stroke-linecap="round" stroke-linejoin="round"/>
<path fill-rule="evenodd" clip-rule="evenodd" d="M15.2037 6.73242H14.7498L14.7503 17.351H15.2057L15.2037 6.73242Z" fill="#FFFF00" stroke="#000008" stroke-width="0.0306506" stroke-linecap="round" stroke-linejoin="round"/>
<path fill-rule="evenodd" clip-rule="evenodd" d="M15.1602 6.67188H15.2757L15.2767 17.4127H15.1611L15.1602 6.67188ZM14.7097 6.67197H14.8261L14.8263 17.4128H14.7098V6.67197H14.7097Z" fill="#FFFF00" stroke="#000008" stroke-width="0.0306506" stroke-linecap="round" stroke-linejoin="round"/>
<path fill-rule="evenodd" clip-rule="evenodd" d="M20.2871 12.2432V11.8507L19.9667 11.5528L18.148 11.0725L15.5269 10.8057L12.3709 10.9658L10.1243 11.4995L9.67065 11.8346V12.2273L10.8196 11.713L13.5477 11.286H16.1688L18.0945 11.4995L19.4318 11.8197L20.2871 12.2432Z" fill="#FFFF00" stroke="#000008" stroke-width="0.0306506" stroke-linecap="round" stroke-linejoin="round"/>
<path fill-rule="evenodd" clip-rule="evenodd" d="M14.9892 11.2199C16.24 11.2176 17.4535 11.3381 18.4161 11.5251C19.4094 11.7232 20.1084 11.9711 20.3474 12.2494L20.3472 12.3872C20.0589 12.0408 19.1183 11.7869 18.3938 11.6417C17.4385 11.4563 16.2331 11.3366 14.9892 11.3389C13.6766 11.3414 12.4544 11.4654 11.5131 11.6487C10.7578 11.7982 9.75051 12.0953 9.62476 12.3883V12.2448C9.69382 12.0419 10.4439 11.7388 11.4961 11.5287C12.4444 11.3442 13.6689 11.2223 14.9892 11.2199ZM14.9897 10.7666C16.2405 10.7644 17.4541 10.885 18.4167 11.0719C19.4099 11.2701 20.109 11.5178 20.348 11.7962L20.3477 11.934C20.0595 11.5877 19.1188 11.3337 18.3943 11.1886C17.439 11.0031 16.2336 10.8834 14.9897 10.8858C13.6772 10.8882 12.4609 11.0123 11.5195 11.1954C10.7906 11.3333 9.74217 11.6421 9.62524 11.9352V11.7915C9.6943 11.5909 10.4595 11.277 11.4966 11.0755C12.445 10.891 13.6695 10.7691 14.9897 10.7666Z" fill="#FFFF00" stroke="#000008" stroke-width="0.0306506" stroke-linecap="round" stroke-linejoin="round"/>
<path fill-rule="evenodd" clip-rule="evenodd" d="M14.9635 8.45533C16.9346 8.44549 18.6539 8.73031 19.4405 9.13233L19.7274 9.62755C19.0437 9.25994 17.1889 8.8777 14.9664 8.93486C13.1555 8.94597 11.2206 9.13377 10.2498 9.65055L10.5923 9.07901C11.389 8.66677 13.268 8.45762 14.9636 8.45543" fill="#FFFF00"/>
<path d="M14.9635 8.45533C16.9346 8.44549 18.6539 8.73031 19.4405 9.13233L19.7274 9.62755C19.0437 9.25994 17.1889 8.8777 14.9664 8.93486C13.1555 8.94597 11.2206 9.13377 10.2498 9.65055L10.5923 9.07901C11.389 8.66677 13.268 8.45762 14.9636 8.45543" stroke="#000008" stroke-width="0.0306506" stroke-linecap="round" stroke-linejoin="round"/>
<path fill-rule="evenodd" clip-rule="evenodd" d="M14.9901 8.86306C16.1143 8.86009 17.2006 8.92336 18.0646 9.07888C18.8691 9.22827 19.6364 9.45252 19.7461 9.57311L19.8312 9.72307C19.5644 9.54924 18.9004 9.35569 18.0478 9.19438C17.1916 9.03383 16.1061 8.98064 14.9881 8.98356C13.7192 8.97923 12.7333 9.04607 11.8873 9.19326C10.9925 9.36031 10.3717 9.59895 10.2185 9.71234L10.3019 9.55381C10.5994 9.40234 11.0716 9.21976 11.865 9.07723C12.74 8.91776 13.7363 8.86994 14.9902 8.86307L14.9901 8.86306ZM14.9896 8.41025C16.0655 8.40743 17.1278 8.46725 17.9558 8.61576C18.6089 8.74261 19.2547 8.94064 19.4912 9.11686L19.6156 9.31409C19.4041 9.07954 18.6081 8.85728 17.9053 8.73278C17.0836 8.59138 16.0655 8.53542 14.9896 8.52647C13.8605 8.52962 12.817 8.59863 12.0073 8.74572C11.2349 8.89239 10.7364 9.06603 10.5255 9.20164L10.6349 9.03689C10.9259 8.88401 11.3962 8.7436 11.9884 8.6288C12.804 8.48062 13.8539 8.41341 14.9896 8.41025Z" fill="#FFFF00" stroke="#000008" stroke-width="0.0306506" stroke-linecap="round" stroke-linejoin="round"/>
<path fill-rule="evenodd" clip-rule="evenodd" d="M17.6218 14.2346C16.6473 14.0531 15.6711 14.0268 14.9892 14.0348C11.7044 14.0732 10.6433 14.7077 10.5138 14.8999L10.2683 14.5006C11.1046 13.8958 12.8933 13.5566 15.007 13.5913C16.1045 13.6092 17.0516 13.6819 17.8484 13.8359L17.6218 14.2347" fill="#FFFF00"/>
<path d="M17.6218 14.2346C16.6473 14.0531 15.6711 14.0268 14.9892 14.0348C11.7044 14.0732 10.6433 14.7077 10.5138 14.8999L10.2683 14.5006C11.1046 13.8958 12.8933 13.5566 15.007 13.5913C16.1045 13.6092 17.0516 13.6819 17.8484 13.8359L17.6218 14.2347" stroke="#000008" stroke-width="0.0306506" stroke-linecap="round" stroke-linejoin="round"/>
<path fill-rule="evenodd" clip-rule="evenodd" d="M14.9688 13.9803C15.8825 13.9939 16.7794 14.0315 17.6451 14.1926L17.5824 14.303C16.7784 14.1549 15.9213 14.0983 14.9719 14.1029C13.7596 14.0934 12.5335 14.2064 11.466 14.5121C11.1292 14.6056 10.5716 14.8217 10.5147 15.0002L10.4524 14.8976C10.4703 14.792 10.8074 14.573 11.4374 14.3964C12.6601 14.0471 13.8038 13.9882 14.9688 13.9802L14.9688 13.9803ZM15.0103 13.5215C15.957 13.5391 16.9346 13.5828 17.8849 13.7706L17.8196 13.8856C16.9615 13.7156 16.1416 13.6589 15.0158 13.6417C13.7997 13.6439 12.5097 13.7304 11.3368 14.0706C10.9581 14.1807 10.3046 14.4186 10.2828 14.607L10.2205 14.4967C10.2347 14.3256 10.8004 14.1024 11.3094 13.9547C12.4914 13.6119 13.7847 13.5237 15.0103 13.5215Z" fill="#FFFF00" stroke="#000008" stroke-width="0.0294203" stroke-linecap="round" stroke-linejoin="round"/>
<path fill-rule="evenodd" clip-rule="evenodd" d="M19.6759 14.5624L19.2812 15.1734L18.1471 14.1685L15.2051 12.1938L11.8886 10.3792L10.1667 9.79157L10.5337 9.1127L10.6583 9.04492L11.7282 9.31177L15.2586 11.1264L17.2913 12.4073L19.003 13.6348L19.6984 14.4353L19.6759 14.5624Z" fill="#FFFF00" stroke="#000008" stroke-width="0.0306506" stroke-linecap="round" stroke-linejoin="round"/>
<path fill-rule="evenodd" clip-rule="evenodd" d="M10.1063 9.80735C10.4083 9.60297 12.6278 10.5895 14.9502 11.9867C17.2664 13.3879 19.4797 14.9712 19.2799 15.2675L19.2141 15.3706L19.184 15.3944C19.1905 15.3897 19.2238 15.3491 19.1807 15.2393C19.0821 14.9153 17.5121 13.6653 14.9071 12.096C12.3676 10.5852 10.2512 9.67455 10.0396 9.93484L10.1063 9.80735ZM19.7582 14.5534C19.9492 14.177 17.8905 12.6297 15.3381 11.1232C12.7271 9.64665 10.8452 8.77751 10.5014 9.03668L10.4251 9.17539C10.4244 9.18302 10.4279 9.16593 10.444 9.15351C10.5065 9.0991 10.6101 9.10277 10.6568 9.10192C11.2487 9.11077 12.9392 9.88694 15.3109 11.2436C16.3501 11.8475 19.701 13.9917 19.6882 14.5946C19.6891 14.6465 19.6925 14.6571 19.673 14.6828L19.7582 14.5534Z" fill="#FFFF00"/>
<path d="M19.7582 14.5534C19.9492 14.177 17.8905 12.6297 15.3381 11.1232C12.7271 9.64665 10.8452 8.77751 10.5014 9.03668L10.4251 9.17539C10.4244 9.18302 10.4279 9.16593 10.444 9.15351C10.5065 9.0991 10.6101 9.10277 10.6568 9.10192C11.2487 9.11077 12.9392 9.88694 15.3109 11.2436C16.3501 11.8475 19.701 13.9917 19.6882 14.5946C19.6891 14.6465 19.6925 14.6571 19.673 14.6828L19.7582 14.5534ZM19.7582 14.5534L19.7582 14.5533M10.1063 9.80735C10.4083 9.60297 12.6278 10.5895 14.9502 11.9867C17.2664 13.3879 19.4797 14.9712 19.2799 15.2675L19.2141 15.3706L19.184 15.3944C19.1905 15.3897 19.2238 15.3491 19.1807 15.2393C19.0821 14.9153 17.5121 13.6653 14.9071 12.096C12.3676 10.5852 10.2512 9.67455 10.0396 9.93484L10.1063 9.80735Z" stroke="#000008" stroke-width="0.0306506" stroke-linecap="round" stroke-linejoin="round"/>
<path d="M11.814 12.6207C11.814 13.4891 12.1704 14.2745 12.7478 14.8485C13.3263 15.4238 14.1125 15.7867 14.9842 15.7867C15.8604 15.7867 16.6556 15.4317 17.2317 14.8587C17.8077 14.2857 18.1647 13.495 18.1649 12.6235H18.1648V8.39718L11.8132 8.38965L11.8139 12.6207L11.814 12.6207Z" fill="white" stroke="#000008" stroke-width="0.035859"/>
<path d="M11.9334 12.6254V12.6278C11.9334 13.4581 12.278 14.2142 12.8308 14.7631C13.3846 15.3131 14.1474 15.655 14.9819 15.655C15.8207 15.655 16.5819 15.3155 17.1334 14.7677C17.6848 14.2198 18.0265 13.4637 18.0266 12.6305H18.0265V8.53028L11.9371 8.5293L11.9333 12.6254M16.8022 9.75687L16.8025 12.3662L16.8002 12.6422C16.8002 12.7148 16.7959 12.7976 16.7874 12.8681C16.7379 13.2807 16.5478 13.6403 16.2661 13.92C15.9364 14.2474 15.4814 14.4505 14.9798 14.4505C14.4809 14.4505 14.0363 14.2404 13.7052 13.9115C13.3655 13.5742 13.1687 13.1117 13.1687 12.6334L13.168 9.75021L16.8022 9.75676L16.8022 9.75687Z" fill="#FF0000"/>
<path d="M11.9334 12.6254V12.6278C11.9334 13.4581 12.278 14.2142 12.8308 14.7631C13.3846 15.3131 14.1474 15.655 14.9819 15.655C15.8207 15.655 16.5819 15.3155 17.1334 14.7677C17.6848 14.2198 18.0265 13.4637 18.0266 12.6305H18.0265V8.53028L11.9371 8.5293L11.9333 12.6254M16.8022 9.75687L16.8025 12.3662L16.8002 12.6422C16.8002 12.7148 16.7959 12.7976 16.7874 12.8681C16.7379 13.2807 16.5478 13.6403 16.2661 13.92C15.9364 14.2474 15.4814 14.4505 14.9798 14.4505C14.4809 14.4505 14.0363 14.2404 13.7052 13.9115C13.3655 13.5742 13.1687 13.1117 13.1687 12.6334L13.168 9.75021L16.8022 9.75676L16.8022 9.75687Z" stroke="#000008" stroke-width="0.0271383"/>
<path d="M12.3279 9.60179C12.3351 9.30713 12.5446 9.23737 12.5462 9.23634C12.5477 9.23535 12.7725 9.31146 12.7717 9.60452L12.3279 9.60179Z" fill="#FFFF00"/>
<path d="M12.1466 9.24234L12.1101 9.58096L12.3316 9.58144C12.3337 9.30128 12.5442 9.25468 12.5493 9.25572C12.554 9.25545 12.7626 9.31766 12.7682 9.58144H12.9902L12.9501 9.24023L12.1466 9.24226L12.1466 9.24234Z" fill="#FFFF00" stroke="#000008" stroke-width="0.0267457"/>
<path d="M12.095 9.58105H13.0015C13.0206 9.58105 13.0362 9.59988 13.0362 9.6229C13.0362 9.64587 13.0206 9.6646 13.0015 9.6646H12.095C12.0759 9.6646 12.0603 9.64587 12.0603 9.6229C12.0603 9.59988 12.0759 9.58105 12.095 9.58105Z" fill="#FFFF00" stroke="#000008" stroke-width="0.0267457"/>
<path d="M12.4253 9.58123C12.4263 9.40443 12.5463 9.3544 12.5469 9.35449C12.547 9.35449 12.6722 9.40608 12.6732 9.58123H12.4253Z" fill="#FFFF00" stroke="#000008" stroke-width="0.0267457"/>
<path d="M12.1141 9.10156H12.9831C13.0014 9.10156 13.0164 9.11856 13.0164 9.13917C13.0164 9.15983 13.0014 9.17678 12.9831 9.17678H12.1141C12.0958 9.17678 12.0808 9.15993 12.0808 9.13917C12.0808 9.11856 12.0958 9.10156 12.1141 9.10156Z" fill="#FFFF00" stroke="#000008" stroke-width="0.0267457"/>
<path d="M12.1332 9.17773H12.9643C12.9818 9.17773 12.9962 9.19463 12.9962 9.2153C12.9962 9.23601 12.9818 9.2529 12.9643 9.2529H12.1332C12.1157 9.2529 12.1013 9.23601 12.1013 9.2153C12.1013 9.19463 12.1157 9.17773 12.1332 9.17773Z" fill="#FFFF00" stroke="#000008" stroke-width="0.0267457"/>
<path d="M12.4012 8.61226L12.4668 8.61236V8.65887H12.5147V8.61133L12.5819 8.61154V8.65889H12.63V8.61135H12.6972L12.6971 8.71872C12.6971 8.73557 12.6835 8.74649 12.6678 8.74649H12.4318C12.416 8.74649 12.4013 8.73383 12.4013 8.71839L12.4011 8.61229L12.4012 8.61226Z" fill="#FFFF00" stroke="#000008" stroke-width="0.0267457"/>
<path d="M12.6477 8.75383L12.6625 9.09814L12.4324 9.09729L12.4476 8.75293L12.6477 8.75383Z" fill="#FFFF00" stroke="#000008" stroke-width="0.0267457"/>
<path d="M12.3677 8.91602L12.3747 9.10161L12.1541 9.10172L12.1603 8.91603L12.3677 8.91602Z" fill="#FFFF00" stroke="#000008" stroke-width="0.0267457"/>
<path d="M12.9341 8.91602L12.9411 9.10161L12.7205 9.10172L12.7267 8.91603L12.9341 8.91602Z" fill="#FFFF00" stroke="#000008" stroke-width="0.0267457"/>
<path d="M12.119 8.78022L12.1831 8.78038V8.82693H12.2301V8.7793L12.2958 8.77951V8.82696H12.3429V8.77932L12.4087 8.77943L12.4086 8.88679C12.4086 8.90355 12.3953 8.91447 12.3799 8.91447H12.149C12.1335 8.91447 12.1191 8.9019 12.1191 8.88642L12.1189 8.78027L12.119 8.78022Z" fill="#FFFF00" stroke="#000008" stroke-width="0.0267457"/>
<path d="M12.6873 8.78022L12.7515 8.78038V8.82693H12.7984V8.7793L12.8642 8.77951V8.82696H12.9112V8.77932L12.977 8.77943L12.9769 8.88679C12.9769 8.90355 12.9636 8.91447 12.9482 8.91447H12.7173C12.7019 8.91447 12.6875 8.9019 12.6874 8.88642L12.6873 8.78027L12.6873 8.78022Z" fill="#FFFF00" stroke="#000008" stroke-width="0.0267457"/>
<path d="M12.5252 8.86313C12.5238 8.82967 12.5721 8.82929 12.5715 8.86313V8.94513H12.5252L12.5252 8.86313Z" fill="#000008"/>
<path d="M12.241 8.98251C12.2408 8.95017 12.2857 8.94951 12.2852 8.98251V9.04586H12.241L12.241 8.98251Z" fill="#000008"/>
<path d="M12.8084 8.98251C12.8082 8.95017 12.8531 8.94951 12.8526 8.98251V9.04586H12.8084L12.8084 8.98251Z" fill="#000008"/>
<path d="M12.3279 12.0725C12.3351 11.7778 12.5446 11.7081 12.5462 11.707C12.5477 11.7061 12.7725 11.7822 12.7717 12.0752L12.3279 12.0725Z" fill="#FFFF00"/>
<path d="M12.1466 11.713L12.1101 12.0517L12.3316 12.0521C12.3337 11.772 12.5442 11.7254 12.5493 11.7264C12.554 11.7262 12.7626 11.7884 12.7682 12.0521H12.9902L12.9501 11.7109L12.1466 11.713L12.1466 11.713Z" fill="#FFFF00" stroke="#000008" stroke-width="0.0267457"/>
<path d="M12.095 12.0537H13.0015C13.0206 12.0537 13.0362 12.0725 13.0362 12.0956C13.0362 12.1185 13.0206 12.1373 13.0015 12.1373H12.095C12.0759 12.1373 12.0603 12.1185 12.0603 12.0956C12.0603 12.0725 12.0759 12.0537 12.095 12.0537Z" fill="#FFFF00" stroke="#000008" stroke-width="0.0267457"/>
<path d="M12.4255 12.0519C12.4265 11.8751 12.5465 11.8251 12.5472 11.8252C12.5472 11.8252 12.6724 11.8768 12.6734 12.0519H12.4255Z" fill="#FFFF00" stroke="#000008" stroke-width="0.0267457"/>
<path d="M12.1139 11.5723H12.9828C13.0011 11.5723 13.0161 11.5893 13.0161 11.6099C13.0161 11.6305 13.0011 11.6475 12.9828 11.6475H12.1139C12.0956 11.6475 12.0806 11.6306 12.0806 11.6099C12.0806 11.5893 12.0956 11.5723 12.1139 11.5723Z" fill="#FFFF00" stroke="#000008" stroke-width="0.0267457"/>
<path d="M12.1332 11.6475H12.9643C12.9818 11.6475 12.9962 11.6644 12.9962 11.685C12.9962 11.7057 12.9818 11.7226 12.9643 11.7226H12.1332C12.1157 11.7226 12.1013 11.7057 12.1013 11.685C12.1013 11.6644 12.1157 11.6475 12.1332 11.6475Z" fill="#FFFF00" stroke="#000008" stroke-width="0.0267457"/>
<path d="M12.4012 11.083L12.4668 11.0831V11.1296H12.5147V11.082L12.5819 11.0822V11.1296H12.63V11.0821H12.6972L12.6971 11.1894C12.6971 11.2063 12.6835 11.2172 12.6678 11.2172H12.4318C12.416 11.2172 12.4013 11.2045 12.4013 11.1891L12.4011 11.083L12.4012 11.083Z" fill="#FFFF00" stroke="#000008" stroke-width="0.0267457"/>
<path d="M12.6477 11.2265L12.6625 11.5708L12.4324 11.5699L12.4476 11.2256L12.6477 11.2265Z" fill="#FFFF00" stroke="#000008" stroke-width="0.0267457"/>
<path d="M12.3677 11.3857L12.3747 11.5713L12.1541 11.5714L12.1603 11.3858L12.3677 11.3857Z" fill="#FFFF00" stroke="#000008" stroke-width="0.0267457"/>
<path d="M12.9341 11.3857L12.9411 11.5713L12.7205 11.5714L12.7267 11.3858L12.9341 11.3857Z" fill="#FFFF00" stroke="#000008" stroke-width="0.0267457"/>
<path d="M12.119 11.2529L12.1831 11.253V11.2996H12.2301V11.252L12.2958 11.2522V11.2996H12.3429V11.252L12.4087 11.2521L12.4086 11.3595C12.4086 11.3762 12.3953 11.3871 12.3799 11.3871H12.149C12.1335 11.3871 12.1191 11.3746 12.1191 11.3591L12.1189 11.2529L12.119 11.2529Z" fill="#FFFF00" stroke="#000008" stroke-width="0.0267457"/>
<path d="M12.6873 11.2529L12.7515 11.253V11.2996H12.7984V11.252L12.8642 11.2522V11.2996H12.9112V11.252L12.977 11.2521L12.9769 11.3595C12.9769 11.3762 12.9636 11.3871 12.9482 11.3871H12.7173C12.7019 11.3871 12.6875 11.3746 12.6874 11.3591L12.6873 11.2529L12.6873 11.2529Z" fill="#FFFF00" stroke="#000008" stroke-width="0.0267457"/>
<path d="M12.5252 11.3358C12.5238 11.3023 12.5721 11.3019 12.5715 11.3358V11.4178H12.5252L12.5252 11.3358Z" fill="#000008"/>
<path d="M12.241 11.4552C12.2408 11.4228 12.2857 11.4222 12.2852 11.4552V11.5185H12.241L12.241 11.4552Z" fill="#000008"/>
<path d="M12.8084 11.4552C12.8082 11.4228 12.8531 11.4222 12.8526 11.4552V11.5185H12.8084L12.8084 11.4552Z" fill="#000008"/>
<path d="M13.2919 14.6472C13.0874 14.4344 13.1855 14.2369 13.1858 14.2351C13.1862 14.2334 13.3987 14.1278 13.6066 14.3348L13.2919 14.6472Z" fill="#FFFF00"/>
<path d="M12.9098 14.5225L13.1249 14.787L13.2813 14.6305C13.0835 14.4316 13.1987 14.2497 13.203 14.2469C13.2062 14.2433 13.3974 14.1394 13.5889 14.3214L13.7454 14.1642L13.4745 13.9521L12.9097 14.5225L12.9098 14.5225Z" fill="#FFFF00" stroke="#000008" stroke-width="0.0267457"/>
<path d="M13.116 14.7967L13.7547 14.1549C13.7682 14.1414 13.7926 14.1436 13.8089 14.1598C13.8253 14.176 13.8276 14.2003 13.8141 14.2138L13.1754 14.8556C13.162 14.8691 13.1376 14.867 13.1213 14.8508C13.1049 14.8346 13.1026 14.8102 13.116 14.7967Z" fill="#FFFF00" stroke="#000008" stroke-width="0.0267457"/>
<path d="M13.3466 14.5631C13.2215 14.4378 13.2705 14.3176 13.271 14.3172C13.271 14.3172 13.396 14.2649 13.5212 14.3876L13.3466 14.5631Z" fill="#FFFF00" stroke="#000008" stroke-width="0.0267457"/>
<path d="M12.7869 14.4461L13.3992 13.8309C13.4121 13.818 13.4347 13.8193 13.4494 13.8338C13.4641 13.8484 13.4656 13.871 13.4527 13.8839L12.8404 14.4991C12.8275 14.5121 12.8049 14.5109 12.7902 14.4962C12.7755 14.4817 12.774 14.4591 12.7869 14.4461Z" fill="#FFFF00" stroke="#000008" stroke-width="0.0267457"/>
<path d="M12.8542 14.4853L13.4399 13.8968C13.4522 13.8844 13.4743 13.8862 13.489 13.9007C13.5037 13.9153 13.5057 13.9374 13.4933 13.9498L12.9077 14.5382C12.8954 14.5506 12.8732 14.5489 12.8585 14.5343C12.8438 14.5197 12.8419 14.4977 12.8542 14.4853Z" fill="#FFFF00" stroke="#000008" stroke-width="0.0267457"/>
<path d="M12.6401 13.8971L12.6864 13.8507L12.7195 13.8835L12.7532 13.8496L12.7194 13.8161L12.767 13.7686L12.8006 13.802L12.8345 13.768L12.8007 13.7345L12.8481 13.6869L12.9243 13.7626C12.9363 13.7745 12.9345 13.7918 12.9234 13.8029L12.7572 13.97C12.746 13.9812 12.7267 13.9827 12.7157 13.9718L12.6401 13.8972L12.6401 13.8971Z" fill="#FFFF00" stroke="#000008" stroke-width="0.0267457"/>
<path d="M12.9178 13.8238L13.1731 14.0559L13.0103 14.2182L12.7761 13.9648L12.9178 13.8238Z" fill="#FFFF00" stroke="#000008" stroke-width="0.0267457"/>
<path d="M12.8329 14.1339L12.9699 14.2597L12.8144 14.416L12.6868 14.2808L12.8329 14.1339Z" fill="#FFFF00" stroke="#000008" stroke-width="0.0267457"/>
<path d="M13.2323 13.7335L13.3693 13.8593L13.2139 14.0156L13.0862 13.8804L13.2323 13.7335Z" fill="#FFFF00" stroke="#000008" stroke-width="0.0267457"/>
<path d="M12.563 14.2154L12.6083 14.1701L12.6414 14.2029L12.6745 14.1697L12.6406 14.1361L12.6871 14.0897L12.7208 14.1232L12.754 14.0899L12.7201 14.0563L12.7665 14.0098L12.8428 14.0855C12.8547 14.0973 12.8531 14.1144 12.8423 14.1253L12.6796 14.2888C12.6687 14.2998 12.6496 14.3011 12.6386 14.2902L12.563 14.2155L12.563 14.2154Z" fill="#FFFF00" stroke="#000008" stroke-width="0.0267457"/>
<path d="M12.9614 13.8141L13.0067 13.7688L13.0398 13.8016L13.0729 13.7683L13.039 13.7348L13.0855 13.6884L13.1193 13.7218L13.1524 13.6885L13.1185 13.6549L13.165 13.6084L13.2412 13.6841C13.2532 13.6959 13.2516 13.7131 13.2407 13.7239L13.078 13.8874C13.0671 13.8984 13.048 13.8997 13.037 13.8888L12.9614 13.8142L12.9614 13.8141Z" fill="#FFFF00" stroke="#000008" stroke-width="0.0267457"/>
<path d="M12.9084 13.9875C12.8835 13.9649 12.9174 13.9304 12.9411 13.9547L12.9994 14.0125L12.9668 14.0454L12.9084 13.9875Z" fill="#000008"/>
<path d="M12.7916 14.2731C12.7685 14.2504 12.7997 14.2181 12.8228 14.2418L12.8679 14.2865L12.8367 14.3178L12.7916 14.2731Z" fill="#000008"/>
<path d="M13.194 13.8688C13.1708 13.8461 13.202 13.8138 13.2251 13.8375L13.2702 13.8822L13.2391 13.9135L13.194 13.8688Z" fill="#000008"/>
<path d="M14.7732 9.60179C14.7804 9.30713 14.99 9.23737 14.9915 9.23634C14.993 9.23535 15.2178 9.31146 15.2171 9.60452L14.7732 9.60179Z" fill="#FFFF00"/>
<path d="M14.5919 9.24234L14.5554 9.58096L14.7769 9.58144C14.779 9.30128 14.9895 9.25468 14.9946 9.25572C14.9993 9.25545 15.2079 9.31766 15.2135 9.58144H15.4356L15.3955 9.24023L14.5919 9.24226L14.5919 9.24234Z" fill="#FFFF00" stroke="#000008" stroke-width="0.0267457"/>
<path d="M14.5403 9.58105H15.4468C15.4659 9.58105 15.4815 9.59988 15.4815 9.6229C15.4815 9.64587 15.4659 9.6646 15.4468 9.6646H14.5403C14.5212 9.6646 14.5056 9.64587 14.5056 9.6229C14.5056 9.59988 14.5212 9.58105 14.5403 9.58105Z" fill="#FFFF00" stroke="#000008" stroke-width="0.0267457"/>
<path d="M14.8706 9.58123C14.8716 9.40443 14.9916 9.3544 14.9922 9.35449C14.9923 9.35449 15.1175 9.40608 15.1185 9.58123H14.8706Z" fill="#FFFF00" stroke="#000008" stroke-width="0.0267457"/>
<path d="M14.5592 9.10156H15.4282C15.4465 9.10156 15.4615 9.11856 15.4615 9.13917C15.4615 9.15983 15.4465 9.17678 15.4282 9.17678H14.5592C14.5409 9.17678 14.5259 9.15993 14.5259 9.13917C14.5259 9.11856 14.5409 9.10156 14.5592 9.10156Z" fill="#FFFF00" stroke="#000008" stroke-width="0.0267457"/>
<path d="M14.5785 9.17773H15.4096C15.4271 9.17773 15.4415 9.19463 15.4415 9.2153C15.4415 9.23601 15.4271 9.2529 15.4096 9.2529H14.5785C14.561 9.2529 14.5466 9.23601 14.5466 9.2153C14.5466 9.19463 14.561 9.17773 14.5785 9.17773Z" fill="#FFFF00" stroke="#000008" stroke-width="0.0267457"/>
<path d="M14.8465 8.61226L14.9121 8.61236V8.65887H14.96V8.61133L15.0272 8.61154V8.65889H15.0753V8.61135H15.1425L15.1424 8.71872C15.1424 8.73557 15.1288 8.74649 15.1131 8.74649H14.8771C14.8613 8.74649 14.8466 8.73383 14.8466 8.71839L14.8464 8.61229L14.8465 8.61226Z" fill="#FFFF00" stroke="#000008" stroke-width="0.0267457"/>
<path d="M15.093 8.75383L15.1078 9.09814L14.8777 9.09729L14.8929 8.75293L15.093 8.75383Z" fill="#FFFF00" stroke="#000008" stroke-width="0.0267457"/>
<path d="M14.813 8.91602L14.82 9.10161L14.5994 9.10172L14.6056 8.91603L14.813 8.91602Z" fill="#FFFF00" stroke="#000008" stroke-width="0.0267457"/>
<path d="M15.3794 8.91602L15.3865 9.10161L15.1658 9.10172L15.172 8.91603L15.3794 8.91602Z" fill="#FFFF00" stroke="#000008" stroke-width="0.0267457"/>
<path d="M14.5643 8.78022L14.6284 8.78038V8.82693H14.6754V8.7793L14.7411 8.77951V8.82696H14.7882V8.77932L14.854 8.77943L14.8539 8.88679C14.8539 8.90355 14.8406 8.91447 14.8252 8.91447H14.5943C14.5788 8.91447 14.5644 8.9019 14.5644 8.88642L14.5642 8.78027L14.5643 8.78022Z" fill="#FFFF00" stroke="#000008" stroke-width="0.0267457"/>
<path d="M15.1326 8.78022L15.1968 8.78038V8.82693H15.2437V8.7793L15.3095 8.77951V8.82696H15.3565V8.77932L15.4223 8.77943L15.4222 8.88679C15.4222 8.90355 15.4089 8.91447 15.3936 8.91447H15.1626C15.1472 8.91447 15.1328 8.9019 15.1327 8.88642L15.1326 8.78027L15.1326 8.78022Z" fill="#FFFF00" stroke="#000008" stroke-width="0.0267457"/>
<path d="M14.9702 8.86313C14.9688 8.82967 15.0171 8.82929 15.0166 8.86313V8.94513H14.9702L14.9702 8.86313Z" fill="#000008"/>
<path d="M14.6863 8.98251C14.6861 8.95017 14.731 8.94951 14.7305 8.98251V9.04586H14.6863L14.6863 8.98251Z" fill="#000008"/>
<path d="M15.2537 8.98251C15.2535 8.95017 15.2984 8.94951 15.2979 8.98251V9.04586H15.2537L15.2537 8.98251Z" fill="#000008"/>
<path d="M17.6453 9.60179C17.638 9.30713 17.4285 9.23737 17.427 9.23634C17.4255 9.23535 17.2006 9.31146 17.2014 9.60452L17.6453 9.60179Z" fill="#FFFF00"/>
<path d="M17.8266 9.24234L17.863 9.58096L17.6416 9.58144C17.6394 9.30128 17.429 9.25468 17.4239 9.25572C17.4191 9.25545 17.2105 9.31766 17.205 9.58144H16.9829L17.023 9.24023L17.8266 9.24226L17.8266 9.24234Z" fill="#FFFF00" stroke="#000008" stroke-width="0.0267457"/>
<path d="M17.8781 9.58105H16.9717C16.9526 9.58105 16.9369 9.59988 16.9369 9.6229C16.9369 9.64587 16.9526 9.6646 16.9717 9.6646H17.8781C17.8972 9.6646 17.9128 9.64587 17.9128 9.6229C17.9128 9.59988 17.8972 9.58105 17.8781 9.58105Z" fill="#FFFF00" stroke="#000008" stroke-width="0.0267457"/>
<path d="M17.5479 9.58123C17.5469 9.40443 17.4268 9.3544 17.4262 9.35449C17.4262 9.35449 17.3009 9.40608 17.2999 9.58123H17.5479Z" fill="#FFFF00" stroke="#000008" stroke-width="0.0267457"/>
<path d="M17.8593 9.10156H16.9903C16.972 9.10156 16.957 9.11856 16.957 9.13917C16.957 9.15983 16.972 9.17678 16.9903 9.17678H17.8593C17.8776 9.17678 17.8926 9.15993 17.8926 9.13917C17.8926 9.11856 17.8776 9.10156 17.8593 9.10156Z" fill="#FFFF00" stroke="#000008" stroke-width="0.0267457"/>
<path d="M17.84 9.17773H17.0088C16.9913 9.17773 16.977 9.19463 16.977 9.2153C16.977 9.23601 16.9913 9.2529 17.0088 9.2529H17.84C17.8575 9.2529 17.8718 9.23601 17.8718 9.2153C17.8718 9.19463 17.8575 9.17773 17.84 9.17773Z" fill="#FFFF00" stroke="#000008" stroke-width="0.0267457"/>
<path d="M17.5719 8.61226L17.5063 8.61236V8.65887H17.4584V8.61133L17.3912 8.61154V8.65889H17.3432V8.61135H17.2759L17.276 8.71872C17.276 8.73557 17.2896 8.74649 17.3054 8.74649H17.5413C17.5572 8.74649 17.5718 8.73383 17.5719 8.71839L17.572 8.61229L17.5719 8.61226Z" fill="#FFFF00" stroke="#000008" stroke-width="0.0267457"/>
<path d="M17.3254 8.75383L17.3106 9.09814L17.5408 9.09729L17.5255 8.75293L17.3254 8.75383Z" fill="#FFFF00" stroke="#000008" stroke-width="0.0267457"/>
<path d="M17.6054 8.91602L17.5984 9.10161L17.8191 9.10172L17.8129 8.91603L17.6054 8.91602Z" fill="#FFFF00" stroke="#000008" stroke-width="0.0267457"/>
<path d="M17.039 8.91602L17.032 9.10161L17.2527 9.10172L17.2465 8.91603L17.039 8.91602Z" fill="#FFFF00" stroke="#000008" stroke-width="0.0267457"/>
<path d="M17.8542 8.78022L17.79 8.78038V8.82693H17.7431V8.7793L17.6773 8.77951V8.82696H17.6303V8.77932L17.5645 8.77943L17.5646 8.88679C17.5646 8.90355 17.5779 8.91447 17.5933 8.91447H17.8242C17.8397 8.91447 17.854 8.9019 17.8541 8.88642L17.8542 8.78027L17.8542 8.78022Z" fill="#FFFF00" stroke="#000008" stroke-width="0.0267457"/>
<path d="M17.2858 8.78022L17.2217 8.78038V8.82693H17.1747V8.7793L17.109 8.77951V8.82696H17.0619V8.77932L16.9961 8.77943L16.9962 8.88679C16.9962 8.90355 17.0095 8.91447 17.0249 8.91447H17.2558C17.2713 8.91447 17.2857 8.9019 17.2857 8.88642L17.2859 8.78027L17.2858 8.78022Z" fill="#FFFF00" stroke="#000008" stroke-width="0.0267457"/>
<path d="M17.4482 8.86313C17.4496 8.82967 17.4013 8.82929 17.4019 8.86313V8.94513H17.4482L17.4482 8.86313Z" fill="#000008"/>
<path d="M17.7322 8.98251C17.7323 8.95017 17.6874 8.94951 17.688 8.98251V9.04586H17.7322L17.7322 8.98251Z" fill="#000008"/>
<path d="M17.1638 8.98251C17.164 8.95017 17.119 8.94951 17.1196 8.98251V9.04586H17.1638L17.1638 8.98251Z" fill="#000008"/>
<path d="M17.6453 12.0725C17.638 11.7778 17.4285 11.7081 17.427 11.707C17.4255 11.7061 17.2006 11.7822 17.2014 12.0752L17.6453 12.0725Z" fill="#FFFF00"/>
<path d="M17.8266 11.713L17.863 12.0517L17.6416 12.0521C17.6394 11.772 17.429 11.7254 17.4239 11.7264C17.4191 11.7262 17.2105 11.7884 17.205 12.0521H16.9829L17.023 11.7109L17.8266 11.713L17.8266 11.713Z" fill="#FFFF00" stroke="#000008" stroke-width="0.0267457"/>
<path d="M17.8781 12.0537H16.9717C16.9526 12.0537 16.9369 12.0725 16.9369 12.0956C16.9369 12.1185 16.9526 12.1373 16.9717 12.1373H17.8781C17.8972 12.1373 17.9128 12.1185 17.9128 12.0956C17.9128 12.0725 17.8972 12.0537 17.8781 12.0537Z" fill="#FFFF00" stroke="#000008" stroke-width="0.0267457"/>
<path d="M17.5479 12.0519C17.5469 11.8751 17.4268 11.8251 17.4262 11.8252C17.4262 11.8252 17.3009 11.8768 17.2999 12.0519H17.5479Z" fill="#FFFF00" stroke="#000008" stroke-width="0.0267457"/>
<path d="M17.8593 11.5723H16.9903C16.972 11.5723 16.957 11.5893 16.957 11.6099C16.957 11.6305 16.972 11.6475 16.9903 11.6475H17.8593C17.8776 11.6475 17.8926 11.6306 17.8926 11.6099C17.8926 11.5893 17.8776 11.5723 17.8593 11.5723Z" fill="#FFFF00" stroke="#000008" stroke-width="0.0267457"/>
<path d="M17.84 11.6484H17.0088C16.9913 11.6484 16.977 11.6653 16.977 11.686C16.977 11.7067 16.9913 11.7236 17.0088 11.7236H17.84C17.8575 11.7236 17.8718 11.7067 17.8718 11.686C17.8718 11.6653 17.8575 11.6484 17.84 11.6484Z" fill="#FFFF00" stroke="#000008" stroke-width="0.0267457"/>
<path d="M17.5719 11.083L17.5063 11.0831V11.1296H17.4584V11.082L17.3912 11.0822V11.1296H17.3432V11.0821H17.2759L17.276 11.1894C17.276 11.2063 17.2896 11.2172 17.3054 11.2172H17.5413C17.5572 11.2172 17.5718 11.2045 17.5719 11.1891L17.572 11.083L17.5719 11.083Z" fill="#FFFF00" stroke="#000008" stroke-width="0.0267457"/>
<path d="M17.3254 11.2265L17.3106 11.5708L17.5408 11.5699L17.5255 11.2256L17.3254 11.2265Z" fill="#FFFF00" stroke="#000008" stroke-width="0.0267457"/>
<path d="M17.6054 11.3867L17.5984 11.5723L17.8191 11.5724L17.8129 11.3867L17.6054 11.3867Z" fill="#FFFF00" stroke="#000008" stroke-width="0.0267457"/>
<path d="M17.039 11.3867L17.032 11.5723L17.2527 11.5724L17.2465 11.3867L17.039 11.3867Z" fill="#FFFF00" stroke="#000008" stroke-width="0.0267457"/>
<path d="M17.8542 11.2529L17.79 11.253V11.2996H17.7431V11.252L17.6773 11.2522V11.2996H17.6303V11.252L17.5645 11.2521L17.5646 11.3595C17.5646 11.3762 17.5779 11.3871 17.5933 11.3871H17.8242C17.8397 11.3871 17.854 11.3746 17.8541 11.3591L17.8542 11.2529L17.8542 11.2529Z" fill="#FFFF00" stroke="#000008" stroke-width="0.0267457"/>
<path d="M17.2858 11.2529L17.2217 11.253V11.2996H17.1747V11.252L17.109 11.2522V11.2996H17.0619V11.252L16.9961 11.2521L16.9962 11.3595C16.9962 11.3762 17.0095 11.3871 17.0249 11.3871H17.2558C17.2713 11.3871 17.2857 11.3746 17.2857 11.3591L17.2859 11.2529L17.2858 11.2529Z" fill="#FFFF00" stroke="#000008" stroke-width="0.0267457"/>
<path d="M17.4482 11.3358C17.4496 11.3023 17.4013 11.3019 17.4019 11.3358V11.4178H17.4482L17.4482 11.3358Z" fill="#000008"/>
<path d="M17.7322 11.4552C17.7323 11.4228 17.6874 11.4222 17.688 11.4552V11.5185H17.7322L17.7322 11.4552Z" fill="#000008"/>
<path d="M17.1638 11.4552C17.164 11.4228 17.119 11.4222 17.1196 11.4552V11.5185H17.1638L17.1638 11.4552Z" fill="#000008"/>
<path d="M16.6793 14.6462C16.8838 14.4334 16.7857 14.2359 16.7854 14.2341C16.785 14.2324 16.5725 14.1268 16.3646 14.3338L16.6793 14.6462Z" fill="#FFFF00"/>
<path d="M17.0614 14.5196L16.8463 14.784L16.6899 14.6275C16.8876 14.4286 16.7725 14.2468 16.7682 14.2439C16.765 14.2404 16.5738 14.1365 16.3823 14.3184L16.2258 14.1612L16.4967 13.9492L17.0615 14.5195L17.0614 14.5196Z" fill="#FFFF00" stroke="#000008" stroke-width="0.0267457"/>
<path d="M16.8552 14.7957L16.2165 14.154C16.203 14.1404 16.1786 14.1426 16.1622 14.1589C16.1459 14.175 16.1436 14.1993 16.1571 14.2128L16.7958 14.8546C16.8092 14.8681 16.8335 14.866 16.8499 14.8498C16.8662 14.8336 16.8686 14.8093 16.8552 14.7957Z" fill="#FFFF00" stroke="#000008" stroke-width="0.0267457"/>
<path d="M16.6246 14.5621C16.7497 14.4368 16.7007 14.3166 16.7002 14.3162C16.7002 14.3162 16.5752 14.2639 16.45 14.3866L16.6246 14.5621Z" fill="#FFFF00" stroke="#000008" stroke-width="0.0267457"/>
<path d="M17.1843 14.4452L16.572 13.8299C16.5591 13.817 16.5365 13.8183 16.5218 13.8329C16.5071 13.8474 16.5056 13.87 16.5185 13.8829L17.1308 14.4982C17.1437 14.5111 17.1663 14.5099 17.181 14.4952C17.1957 14.4807 17.1972 14.4581 17.1843 14.4452Z" fill="#FFFF00" stroke="#000008" stroke-width="0.0267457"/>
<path d="M17.117 14.4843L16.5313 13.8958C16.519 13.8835 16.4969 13.8852 16.4822 13.8998C16.4675 13.9144 16.4655 13.9364 16.4779 13.9488L17.0635 14.5373C17.0758 14.5496 17.098 14.5479 17.1127 14.5333C17.1274 14.5187 17.1293 14.4967 17.117 14.4843Z" fill="#FFFF00" stroke="#000008" stroke-width="0.0267457"/>
<path d="M17.3311 13.8961L17.2848 13.8497L17.2517 13.8825L17.2179 13.8486L17.2518 13.8151L17.2042 13.7676L17.1706 13.801L17.1367 13.767L17.1705 13.7335L17.1231 13.6859L17.0469 13.7616C17.0349 13.7735 17.0367 13.7908 17.0478 13.802L17.214 13.969C17.2252 13.9802 17.2445 13.9817 17.2555 13.9708L17.3311 13.8962L17.3311 13.8961Z" fill="#FFFF00" stroke="#000008" stroke-width="0.0267457"/>
<path d="M17.0534 13.8228L16.7981 14.0549L16.9609 14.2172L17.1951 13.9638L17.0534 13.8228Z" fill="#FFFF00" stroke="#000008" stroke-width="0.0267457"/>
<path d="M17.1383 14.1329L17.0013 14.2587L17.1567 14.415L17.2844 14.2798L17.1383 14.1329Z" fill="#FFFF00" stroke="#000008" stroke-width="0.0267457"/>
<path d="M16.7389 13.7325L16.6019 13.8583L16.7573 14.0146L16.885 13.8794L16.7389 13.7325Z" fill="#FFFF00" stroke="#000008" stroke-width="0.0267457"/>
<path d="M17.4082 14.2145L17.3629 14.1692L17.3298 14.202L17.2967 14.1687L17.3306 14.1352L17.2841 14.0887L17.2504 14.1222L17.2172 14.0889L17.2511 14.0553L17.2047 14.0088L17.1284 14.0845C17.1165 14.0963 17.1181 14.1134 17.1289 14.1243L17.2916 14.2878C17.3025 14.2988 17.3216 14.3001 17.3326 14.2892L17.4082 14.2146L17.4082 14.2145Z" fill="#FFFF00" stroke="#000008" stroke-width="0.0267457"/>
<path d="M17.0098 13.8131L16.9645 13.7678L16.9314 13.8006L16.8983 13.7674L16.9322 13.7338L16.8857 13.6874L16.8519 13.7208L16.8188 13.6875L16.8527 13.6539L16.8062 13.6074L16.7299 13.6832C16.718 13.695 16.7196 13.7121 16.7305 13.723L16.8932 13.8865C16.9041 13.8974 16.9232 13.8987 16.9342 13.8879L17.0098 13.8132L17.0098 13.8131Z" fill="#FFFF00" stroke="#000008" stroke-width="0.0267457"/>
<path d="M17.0628 13.9865C17.0876 13.9639 17.0538 13.9294 17.0301 13.9537L16.9718 14.0115L17.0044 14.0444L17.0628 13.9865Z" fill="#000008"/>
<path d="M17.1796 14.2722C17.2027 14.2495 17.1715 14.2172 17.1484 14.2408L17.1033 14.2855L17.1345 14.3168L17.1796 14.2722Z" fill="#000008"/>
<path d="M16.7772 13.8679C16.8004 13.8452 16.7691 13.8129 16.7461 13.8365L16.7009 13.8812L16.7321 13.9125L16.7772 13.8679Z" fill="#000008"/>
<path d="M14.5974 12.1615V12.1618C14.5974 12.2798 14.6429 12.3874 14.7158 12.4654C14.7888 12.5437 14.8894 12.5923 14.9994 12.5923C15.1099 12.5923 15.2103 12.544 15.283 12.4661C15.3557 12.3882 15.4008 12.2808 15.4008 12.1623V11.5876L14.5989 11.5869L14.5974 12.1615Z" fill="#003399"/>
<path d="M14.7814 11.8842C14.8253 11.8842 14.8609 11.8487 14.8609 11.8049C14.8609 11.7611 14.8253 11.7256 14.7814 11.7256C14.7375 11.7256 14.7019 11.7611 14.7019 11.8049C14.7019 11.8487 14.7375 11.8842 14.7814 11.8842Z" fill="white"/>
<path d="M15.2257 11.8862C15.2696 11.8862 15.3052 11.8506 15.3052 11.8068C15.3052 11.763 15.2696 11.7275 15.2257 11.7275C15.1818 11.7275 15.1462 11.763 15.1462 11.8068C15.1462 11.8506 15.1818 11.8862 15.2257 11.8862Z" fill="white"/>
<path d="M15.0031 12.0981C15.047 12.0981 15.0826 12.0626 15.0826 12.0188C15.0826 11.975 15.047 11.9395 15.0031 11.9395C14.9592 11.9395 14.9236 11.975 14.9236 12.0188C14.9236 12.0626 14.9592 12.0981 15.0031 12.0981Z" fill="white"/>
<path d="M14.7814 12.3207C14.8253 12.3207 14.8609 12.2852 14.8609 12.2414C14.8609 12.1976 14.8253 12.1621 14.7814 12.1621C14.7375 12.1621 14.7019 12.1976 14.7019 12.2414C14.7019 12.2852 14.7375 12.3207 14.7814 12.3207Z" fill="white"/>
<path d="M15.2257 12.3207C15.2696 12.3207 15.3052 12.2852 15.3052 12.2414C15.3052 12.1976 15.2696 12.1621 15.2257 12.1621C15.1818 12.1621 15.1462 12.1976 15.1462 12.2414C15.1462 12.2852 15.1818 12.3207 15.2257 12.3207Z" fill="white"/>
<path d="M14.5965 10.7729V10.7731C14.5965 10.8912 14.6419 10.9987 14.7148 11.0768C14.7878 11.155 14.8884 11.2037 14.9984 11.2037C15.109 11.2037 15.2094 11.1554 15.282 11.0774C15.3547 10.9996 15.3998 10.8921 15.3998 10.7736V10.1989L14.5979 10.1982L14.5965 10.7729Z" fill="#003399"/>
<path d="M14.7814 10.4965C14.8253 10.4965 14.8609 10.461 14.8609 10.4172C14.8609 10.3734 14.8253 10.3379 14.7814 10.3379C14.7375 10.3379 14.7019 10.3734 14.7019 10.4172C14.7019 10.461 14.7375 10.4965 14.7814 10.4965Z" fill="white"/>
<path d="M15.2257 10.4965C15.2696 10.4965 15.3052 10.461 15.3052 10.4172C15.3052 10.3734 15.2696 10.3379 15.2257 10.3379C15.1818 10.3379 15.1462 10.3734 15.1462 10.4172C15.1462 10.461 15.1818 10.4965 15.2257 10.4965Z" fill="white"/>
<path d="M15.0021 10.7094C15.046 10.7094 15.0816 10.6739 15.0816 10.6301C15.0816 10.5863 15.046 10.5508 15.0021 10.5508C14.9582 10.5508 14.9226 10.5863 14.9226 10.6301C14.9226 10.6739 14.9582 10.7094 15.0021 10.7094Z" fill="white"/>
<path d="M14.7814 10.9321C14.8253 10.9321 14.8609 10.8965 14.8609 10.8527C14.8609 10.8089 14.8253 10.7734 14.7814 10.7734C14.7375 10.7734 14.7019 10.8089 14.7019 10.8527C14.7019 10.8965 14.7375 10.9321 14.7814 10.9321Z" fill="white"/>
<path d="M15.2257 10.9321C15.2696 10.9321 15.3052 10.8965 15.3052 10.8527C15.3052 10.8089 15.2696 10.7734 15.2257 10.7734C15.1818 10.7734 15.1462 10.8089 15.1462 10.8527C15.1462 10.8965 15.1818 10.9321 15.2257 10.9321Z" fill="white"/>
<path d="M13.4861 12.1615V12.1618C13.4861 12.2798 13.5315 12.3874 13.6044 12.4654C13.6774 12.5437 13.778 12.5923 13.888 12.5923C13.9986 12.5923 14.099 12.544 14.1717 12.4661C14.2443 12.3882 14.2895 12.2808 14.2895 12.1623V11.5876L13.4875 11.5869L13.4861 12.1615Z" fill="#003399"/>
<path d="M13.671 11.8842C13.7149 11.8842 13.7505 11.8487 13.7505 11.8049C13.7505 11.7611 13.7149 11.7256 13.671 11.7256C13.6271 11.7256 13.5916 11.7611 13.5916 11.8049C13.5916 11.8487 13.6271 11.8842 13.671 11.8842Z" fill="white"/>
<path d="M14.1154 11.8852C14.1593 11.8852 14.1949 11.8497 14.1949 11.8059C14.1949 11.7621 14.1593 11.7266 14.1154 11.7266C14.0715 11.7266 14.0359 11.7621 14.0359 11.8059C14.0359 11.8497 14.0715 11.8852 14.1154 11.8852Z" fill="white"/>
<path d="M13.8917 12.0981C13.9356 12.0981 13.9712 12.0626 13.9712 12.0188C13.9712 11.975 13.9356 11.9395 13.8917 11.9395C13.8478 11.9395 13.8123 11.975 13.8123 12.0188C13.8123 12.0626 13.8478 12.0981 13.8917 12.0981Z" fill="white"/>
<path d="M13.671 12.3207C13.7149 12.3207 13.7505 12.2852 13.7505 12.2414C13.7505 12.1976 13.7149 12.1621 13.671 12.1621C13.6271 12.1621 13.5916 12.1976 13.5916 12.2414C13.5916 12.2852 13.6271 12.3207 13.671 12.3207Z" fill="white"/>
<path d="M14.1154 12.3207C14.1593 12.3207 14.1949 12.2852 14.1949 12.2414C14.1949 12.1976 14.1593 12.1621 14.1154 12.1621C14.0715 12.1621 14.0359 12.1976 14.0359 12.2414C14.0359 12.2852 14.0715 12.3207 14.1154 12.3207Z" fill="white"/>
<path d="M15.7078 12.1615V12.1618C15.7078 12.2798 15.7532 12.3874 15.8261 12.4654C15.8991 12.5437 15.9997 12.5923 16.1097 12.5923C16.2203 12.5923 16.3207 12.544 16.3934 12.4661C16.466 12.3882 16.5112 12.2808 16.5112 12.1623V11.5876L15.7092 11.5869L15.7078 12.1615Z" fill="#003399"/>
<path d="M15.8927 11.8842C15.9366 11.8842 15.9722 11.8487 15.9722 11.8049C15.9722 11.7611 15.9366 11.7256 15.8927 11.7256C15.8488 11.7256 15.8132 11.7611 15.8132 11.8049C15.8132 11.8487 15.8488 11.8842 15.8927 11.8842Z" fill="white"/>
<path d="M16.3371 11.8852C16.381 11.8852 16.4165 11.8497 16.4165 11.8059C16.4165 11.7621 16.381 11.7266 16.3371 11.7266C16.2932 11.7266 16.2576 11.7621 16.2576 11.8059C16.2576 11.8497 16.2932 11.8852 16.3371 11.8852Z" fill="white"/>
<path d="M16.1134 12.0981C16.1573 12.0981 16.1929 12.0626 16.1929 12.0188C16.1929 11.975 16.1573 11.9395 16.1134 11.9395C16.0695 11.9395 16.0339 11.975 16.0339 12.0188C16.0339 12.0626 16.0695 12.0981 16.1134 12.0981Z" fill="white"/>
<path d="M15.8927 12.3207C15.9366 12.3207 15.9722 12.2852 15.9722 12.2414C15.9722 12.1976 15.9366 12.1621 15.8927 12.1621C15.8488 12.1621 15.8132 12.1976 15.8132 12.2414C15.8132 12.2852 15.8488 12.3207 15.8927 12.3207Z" fill="white"/>
<path d="M16.3371 12.3207C16.381 12.3207 16.4165 12.2852 16.4165 12.2414C16.4165 12.1976 16.381 12.1621 16.3371 12.1621C16.2932 12.1621 16.2576 12.1976 16.2576 12.2414C16.2576 12.2852 16.2932 12.3207 16.3371 12.3207Z" fill="white"/>
<path d="M14.5974 13.5385V13.5388C14.5974 13.6568 14.6429 13.7644 14.7158 13.8424C14.7888 13.9207 14.8894 13.9693 14.9994 13.9693C15.1099 13.9693 15.2103 13.921 15.283 13.8431C15.3557 13.7652 15.4008 13.6577 15.4008 13.5392V12.9645L14.5989 12.9639L14.5974 13.5385Z" fill="#003399"/>
<path d="M14.7824 13.2612C14.8263 13.2612 14.8619 13.2256 14.8619 13.1818C14.8619 13.138 14.8263 13.1025 14.7824 13.1025C14.7385 13.1025 14.7029 13.138 14.7029 13.1818C14.7029 13.2256 14.7385 13.2612 14.7824 13.2612Z" fill="white"/>
<path d="M15.2267 13.2612C15.2706 13.2612 15.3062 13.2256 15.3062 13.1818C15.3062 13.138 15.2706 13.1025 15.2267 13.1025C15.1828 13.1025 15.1472 13.138 15.1472 13.1818C15.1472 13.2256 15.1828 13.2612 15.2267 13.2612Z" fill="white"/>
<path d="M15.0031 13.475C15.047 13.475 15.0826 13.4395 15.0826 13.3957C15.0826 13.3519 15.047 13.3164 15.0031 13.3164C14.9592 13.3164 14.9236 13.3519 14.9236 13.3957C14.9236 13.4395 14.9592 13.475 15.0031 13.475Z" fill="white"/>
<path d="M14.7824 13.6977C14.8263 13.6977 14.8619 13.6622 14.8619 13.6184C14.8619 13.5746 14.8263 13.5391 14.7824 13.5391C14.7385 13.5391 14.7029 13.5746 14.7029 13.6184C14.7029 13.6622 14.7385 13.6977 14.7824 13.6977Z" fill="white"/>
<path d="M15.2267 13.6977C15.2706 13.6977 15.3062 13.6622 15.3062 13.6184C15.3062 13.5746 15.2706 13.5391 15.2267 13.5391C15.1828 13.5391 15.1472 13.5746 15.1472 13.6184C15.1472 13.6622 15.1828 13.6977 15.2267 13.6977Z" fill="white"/>
</g>
<rect x="2.15381" y="1.36035" width="32.0948" height="21.3481" rx="1.88793" stroke="#A8B7D4" stroke-width="0.0723839" stroke-linejoin="round"/>
</g>
<defs>
<filter id="filter0_dd_2012_2677" x="0.37497" y="0.743317" width="35.6526" height="24.9058" filterUnits="userSpaceOnUse" color-interpolation-filters="sRGB">
<feFlood flood-opacity="0" result="BackgroundImageFix"/>
<feColorMatrix in="SourceAlpha" type="matrix" values="0 0 0 0 0 0 0 0 0 0 0 0 0 0 0 0 0 0 127 0" result="hardAlpha"/>
<feOffset dy="1.1618"/>
<feGaussianBlur stdDeviation="0.871353"/>
<feComposite in2="hardAlpha" operator="out"/>
<feColorMatrix type="matrix" values="0 0 0 0 0.258824 0 0 0 0 0.278431 0 0 0 0 0.298039 0 0 0 0.08 0"/>
<feBlend mode="normal" in2="BackgroundImageFix" result="effect1_dropShadow_2012_2677"/>
<feColorMatrix in="SourceAlpha" type="matrix" values="0 0 0 0 0 0 0 0 0 0 0 0 0 0 0 0 0 0 127 0" result="hardAlpha"/>
<feOffset/>
<feGaussianBlur stdDeviation="0.0726127"/>
<feComposite in2="hardAlpha" operator="out"/>
<feColorMatrix type="matrix" values="0 0 0 0 0.258824 0 0 0 0 0.278431 0 0 0 0 0.298039 0 0 0 0.32 0"/>
<feBlend mode="normal" in2="effect1_dropShadow_2012_2677" result="effect2_dropShadow_2012_2677"/>
<feBlend mode="normal" in="SourceGraphic" in2="effect2_dropShadow_2012_2677" result="shape"/>
</filter>
<clipPath id="clip0_2012_2677">
<rect x="2.15381" y="1.36035" width="32.0948" height="21.3481" rx="1.88793" fill="white"/>
</clipPath>
</defs>
</svg>
