<svg width="24" height="25" viewBox="0 0 24 25" fill="none" xmlns="http://www.w3.org/2000/svg">
<path d="M13.0742 12.9404C13.0742 13.5915 12.9505 14.2035 12.7031 14.7764C12.4557 15.3493 12.1204 15.8506 11.6973 16.2803C11.2741 16.71 10.776 17.0485 10.2031 17.2959C9.63021 17.5433 9.01823 17.667 8.36719 17.667C7.71615 17.667 7.10417 17.5433 6.53125 17.2959C5.95833 17.0485 5.46029 16.71 5.03711 16.2803C4.61393 15.8506 4.27865 15.3493 4.03125 14.7764C3.78385 14.2035 3.66016 13.5915 3.66016 12.9404C3.66016 12.2894 3.78385 11.6774 4.03125 11.1045C4.27865 10.5316 4.61393 10.0303 5.03711 9.60059C5.46029 9.1709 5.95833 8.83236 6.53125 8.58496C7.10417 8.33757 7.71615 8.21387 8.36719 8.21387C9.01823 8.21387 9.63021 8.33757 10.2031 8.58496C10.776 8.83236 11.2741 9.1709 11.6973 9.60059C12.1204 10.0303 12.4557 10.5316 12.7031 11.1045C12.9505 11.6774 13.0742 12.2894 13.0742 12.9404ZM18.2305 12.9404C18.2305 14.1644 17.9993 15.2126 17.5371 16.085C17.0749 16.9574 16.5182 17.3936 15.8672 17.3936C15.2161 17.3936 14.6628 16.9574 14.207 16.085C13.7513 15.2126 13.5234 14.1644 13.5234 12.9404C13.5234 11.7035 13.7513 10.652 14.207 9.78613C14.6628 8.92025 15.2161 8.4873 15.8672 8.4873C16.5182 8.4873 17.0749 8.92025 17.5371 9.78613C17.9993 10.652 18.2305 11.7035 18.2305 12.9404ZM19.5 16.9248C19.7344 16.9248 19.9329 16.5374 20.0957 15.7627C20.2585 14.988 20.3398 14.0472 20.3398 12.9404C20.3398 11.8337 20.2585 10.8929 20.0957 10.1182C19.9329 9.34342 19.7344 8.95605 19.5 8.95605C19.2786 8.95605 19.0866 9.34342 18.9238 10.1182C18.7611 10.8929 18.6797 11.8337 18.6797 12.9404C18.6797 14.0472 18.7611 14.988 18.9238 15.7627C19.0866 16.5374 19.2786 16.9248 19.5 16.9248Z" fill="white"/>
</svg>
