<svg width="58" height="58" viewBox="0 0 58 58" fill="none" xmlns="http://www.w3.org/2000/svg">
<g clip-path="url(#clip0_24_7751)">
<path d="M42.3286 16.64C41.1227 16.074 39.8677 15.588 38.5634 15.1819C37.2591 14.7759 35.9178 14.4498 34.5397 14.2037C34.3675 14.499 34.1952 14.8374 34.0229 15.2188C33.8507 15.6003 33.6907 15.951 33.543 16.2709C32.0911 16.0494 30.6453 15.9387 29.2056 15.9387C27.766 15.9387 26.3325 16.0494 24.9052 16.2709C24.7575 15.951 24.5914 15.6003 24.4068 15.2188C24.2222 14.8374 24.0561 14.499 23.9085 14.2037C22.5304 14.4498 21.1891 14.7759 19.8848 15.1819C18.5805 15.588 17.3132 16.0863 16.0827 16.677C14.8522 18.5227 13.8309 20.3684 13.0188 22.2141C12.2313 24.0598 11.6222 25.8932 11.1916 27.7143C10.7609 29.5354 10.4964 31.3564 10.3979 33.1775C10.2995 34.974 10.3241 36.7705 10.4718 38.567C12.1206 39.7729 13.7387 40.7695 15.326 41.557C16.9133 42.3445 18.4821 42.9844 20.0325 43.4766C20.4262 42.9352 20.7954 42.3814 21.1399 41.8154C21.4845 41.2494 21.8044 40.6711 22.0997 40.0805C21.5337 39.8836 20.98 39.6498 20.4386 39.3791C19.8971 39.1084 19.3804 38.8254 18.8882 38.5301C19.0112 38.4316 19.1404 38.3271 19.2758 38.2163C19.4111 38.1056 19.5403 38.001 19.6634 37.9025C21.2137 38.6162 22.8011 39.1576 24.4253 39.5268C26.0249 39.8959 27.6306 40.0805 29.2426 40.0805C30.8545 40.0805 32.4725 39.8959 34.0968 39.5268C35.6964 39.1576 37.2591 38.6162 38.7848 37.9025C38.9079 38.001 39.0371 38.1056 39.1724 38.2163C39.3078 38.3271 39.437 38.4316 39.56 38.5301C39.0678 38.8254 38.5511 39.1084 38.0096 39.3791C37.4682 39.6498 36.9145 39.8836 36.3485 40.0805C36.6438 40.6711 36.9637 41.2494 37.3083 41.8154C37.6528 42.3814 38.0096 42.9352 38.3788 43.4766C39.9538 42.9844 41.5349 42.3507 43.1222 41.5755C44.7095 40.8003 46.3276 39.7975 47.9764 38.567C48.1733 36.4752 48.1856 34.4572 48.0134 32.5131C47.8657 30.5936 47.5458 28.7232 47.0536 26.9021C46.5614 25.0811 45.9216 23.3092 45.1341 21.5865C44.3466 19.8885 43.4114 18.2396 42.3286 16.64ZM22.9487 34.1373C22.0136 34.1373 21.2137 33.762 20.5493 33.0114C19.8848 32.2608 19.5526 31.3564 19.5526 30.2982C19.5526 29.24 19.8787 28.3295 20.5308 27.5666C21.183 26.8037 21.9889 26.4223 22.9487 26.4223C23.8839 26.4223 24.6898 26.7976 25.3666 27.5481C26.0433 28.2987 26.3694 29.2154 26.3448 30.2982C26.3448 31.3564 26.0126 32.2608 25.3481 33.0114C24.6837 33.762 23.8839 34.1373 22.9487 34.1373ZM35.4995 34.1373C34.5643 34.1373 33.7645 33.762 33.1001 33.0114C32.4356 32.2608 32.1034 31.3564 32.1034 30.2982C32.1034 29.24 32.4356 28.3295 33.1001 27.5666C33.7645 26.8037 34.5643 26.4223 35.4995 26.4223C36.4593 26.4223 37.2714 26.7976 37.9358 27.5481C38.6003 28.2987 38.9202 29.2154 38.8956 30.2982C38.8956 31.3564 38.5695 32.2608 37.9174 33.0114C37.2652 33.762 36.4593 34.1373 35.4995 34.1373Z" fill="white"/>
</g>
<defs>
<clipPath id="clip0_24_7751">
<rect width="37.8" height="37.8" fill="white" transform="matrix(1 0 0 -1 10.3242 47.7949)"/>
</clipPath>
</defs>
</svg>
