<svg width="58" height="58" viewBox="0 0 58 58" fill="none" xmlns="http://www.w3.org/2000/svg">
<path d="M38.4972 10.9277H19.3503C14.0606 10.9277 9.75732 15.1413 9.75732 20.3206V37.4719C9.75732 42.6513 14.0606 46.8648 19.3503 46.8648H38.4972C43.7869 46.8648 48.0902 42.6513 48.0902 37.4719V20.3206C48.0902 15.1413 43.7869 10.9277 38.4972 10.9277ZM13.1414 20.3206C13.1414 16.9689 15.9272 14.2412 19.3503 14.2412H38.4972C41.9203 14.2412 44.7061 16.9689 44.7061 20.3206V37.4719C44.7061 40.8236 41.9203 43.5513 38.4972 43.5513H19.3503C15.9272 43.5513 13.1414 40.8236 13.1414 37.4719V20.3206Z" fill="white"/>
<path d="M28.9233 38.0788C33.7659 38.0788 37.7079 33.9598 37.7079 28.8948C37.7079 23.8299 33.7681 19.7109 28.9233 19.7109C24.0785 19.7109 20.1387 23.8299 20.1387 28.8948C20.1387 33.9598 24.0785 38.0788 28.9233 38.0788ZM28.9233 23.1962C31.9305 23.1962 34.3763 25.7532 34.3763 28.8971C34.3763 32.0409 31.9305 34.598 28.9233 34.598C25.9161 34.598 23.4703 32.0409 23.4703 28.8971C23.4703 25.7532 25.9161 23.1962 28.9233 23.1962Z" fill="white"/>
<path d="M38.5071 21.3092C39.8271 21.3092 40.9029 20.2355 40.9029 18.9134C40.9029 17.5913 39.8292 16.5176 38.5071 16.5176C37.185 16.5176 36.1113 17.5913 36.1113 18.9134C36.1113 20.2355 37.185 21.3092 38.5071 21.3092Z" fill="white"/>
</svg>
