<svg width="59" height="58" viewBox="0 0 59 58" fill="none" xmlns="http://www.w3.org/2000/svg">
<path d="M43.9663 11.8389C45.2882 11.8389 46.4547 13.0053 46.4547 14.4049V44.187C46.4547 45.5867 45.2882 46.6754 43.9663 46.6754H14.0287C12.7068 46.6754 11.6182 45.5867 11.6182 44.187V14.4049C11.6182 13.0053 12.7068 11.8389 14.0287 11.8389H43.9663ZM22.1158 41.6987V25.1358H16.9836V41.6987H22.1158ZM19.5497 22.803C21.1826 22.803 22.5046 21.4811 22.5046 19.8481C22.5046 18.2152 21.1826 16.8155 19.5497 16.8155C17.839 16.8155 16.517 18.2152 16.517 19.8481C16.517 21.4811 17.839 22.803 19.5497 22.803ZM41.478 41.6987V32.6008C41.478 28.1685 40.4671 24.6693 35.2572 24.6693C32.7689 24.6693 31.0582 26.0689 30.3583 27.3909H30.2806V25.1358H25.3817V41.6987H30.5138V33.5339C30.5138 31.3566 30.9026 29.2571 33.6242 29.2571C36.2681 29.2571 36.2681 31.7454 36.2681 33.6117V41.6987H41.478Z" fill="#00EE00"/>
</svg>
