<svg width="58" height="58" viewBox="0 0 58 58" fill="none" xmlns="http://www.w3.org/2000/svg">
<path d="M9.79078 28.3176C9.87881 28.2744 9.96688 28.2333 10.0527 28.1944C11.5448 27.5159 13.0568 26.8807 14.5665 26.2455C14.6479 26.2455 14.7843 26.1525 14.8614 26.1223C14.978 26.0726 15.0947 26.0251 15.2113 25.9754C15.4358 25.8803 15.6603 25.7874 15.8825 25.6923C16.3315 25.5043 16.7782 25.3164 17.2272 25.1284L19.9143 23.9983C21.7057 23.2464 23.4994 22.4923 25.2908 21.7404C27.0822 20.9884 28.8758 20.2344 30.6673 19.4824C32.4587 18.7305 34.2523 17.9764 36.0437 17.2245C37.8351 16.4726 39.6288 15.7185 41.4202 14.9666C41.8186 14.798 42.2499 14.5474 42.6769 14.4739C43.0356 14.4112 43.3855 14.2903 43.7464 14.2233C44.4308 14.0958 45.1857 14.0439 45.8415 14.3227C46.0682 14.4199 46.2773 14.556 46.4512 14.7267C47.283 15.5348 47.1664 16.8615 46.9903 17.998C45.7645 25.9192 44.5387 33.8425 43.3107 41.7637C43.1434 42.8505 42.9145 44.0432 42.0408 44.7303C41.3014 45.3115 40.2494 45.3764 39.3361 45.13C38.4227 44.8816 37.6173 44.3608 36.8272 43.8488C33.5503 41.7183 30.2711 39.5878 26.9942 37.4574C26.2151 36.9518 25.348 36.2906 25.3568 35.3723C25.3612 34.8192 25.6979 34.3265 26.0413 33.8879C28.889 30.2406 32.9979 27.7342 36.0547 24.2554C36.4861 23.765 36.825 22.8791 36.233 22.596C35.8809 22.4275 35.4759 22.6565 35.1546 22.8747C31.114 25.6296 27.0756 28.3867 23.035 31.1416C21.7168 32.0405 20.3347 32.9653 18.7457 33.1857C17.324 33.3844 15.8936 32.9955 14.5181 32.5979C13.3649 32.2652 12.2138 31.9238 11.0672 31.5716C10.4576 31.3858 9.8282 31.1848 9.35724 30.7635C8.88627 30.3422 8.61561 29.6334 8.89951 29.0717C9.07778 28.7195 9.4233 28.4969 9.78643 28.3154L9.79078 28.3176Z" fill="#00EE00"/>
</svg>
