<svg version="1.1" id="Layer_1" xmlns="http://www.w3.org/2000/svg" xmlns:xlink="http://www.w3.org/1999/xlink" x="0px" y="0px"
	 width="100%" viewBox="0 0 125 121" enable-background="new 0 0 125 121" xml:space="preserve">
<path fill="#30F127" opacity="1.000000" stroke="none" 
	d="
M85.000000,122.000000 
	C56.666668,122.000000 28.833334,122.000000 1.000000,122.000000 
	C1.000000,81.666664 1.000000,41.333332 1.000000,1.000000 
	C42.666668,1.000000 84.333336,1.000000 126.000000,1.000000 
	C126.000000,41.333332 126.000000,81.666664 126.000000,122.000000 
	C112.500000,122.000000 99.000000,122.000000 85.000000,122.000000 
M98.479980,38.894279 
	C77.989906,38.902344 57.499619,38.857117 37.009861,38.941402 
	C27.066864,38.982304 18.092251,45.509132 17.264612,54.616188 
	C16.382387,64.323883 17.066006,74.173882 17.066006,84.198532 
	C24.779926,84.198532 32.316425,84.198532 40.296459,84.198532 
	C40.296459,79.313454 40.269165,74.838158 40.302326,70.363312 
	C40.365017,61.904011 43.364590,58.850498 51.697510,58.853626 
	C69.355591,58.860256 87.013657,58.910908 104.671722,58.942627 
	C106.457733,58.945835 108.243752,58.943058 110.298584,58.943058 
	C110.298584,52.021980 110.298584,45.644238 110.298584,38.894279 
	C106.434547,38.894279 102.951935,38.894279 98.479980,38.894279 
M74.972389,98.583771 
	C74.983170,86.444000 77.059189,84.370544 89.218948,84.365173 
	C96.171165,84.362106 103.123383,84.364616 110.651665,84.364616 
	C110.651665,78.273109 110.807060,72.806366 110.507759,67.364624 
	C110.454170,66.390244 108.529022,64.731644 107.454269,64.720566 
	C94.629166,64.588242 81.789352,64.388779 68.978722,64.874634 
	C60.529720,65.195084 52.850628,71.587303 52.002171,79.955719 
	C51.007072,89.770416 51.769279,99.763290 51.769279,109.793449 
	C59.396492,109.793449 66.955818,109.793449 74.972374,109.793449 
	C74.972374,106.141045 74.972374,102.843559 74.972389,98.583771 
M16.708935,30.368231 
	C16.560043,33.988659 19.270741,33.154186 21.251013,33.159924 
	C36.901745,33.205250 52.552662,33.185913 68.203522,33.186432 
	C70.642097,33.186516 73.080673,33.186447 75.602829,33.186447 
	C75.602829,26.159912 75.602829,19.800190 75.602829,13.528191 
	C55.801426,13.528191 36.431450,13.528191 16.692163,13.528191 
	C16.692163,19.094580 16.692163,24.241035 16.708935,30.368231 
z"/>
<path fill="#0E110E" opacity="1.000000" stroke="none" 
	d="
M98.974655,38.894279 
	C102.951935,38.894279 106.434547,38.894279 110.298584,38.894279 
	C110.298584,45.644238 110.298584,52.021980 110.298584,58.943058 
	C108.243752,58.943058 106.457733,58.945835 104.671722,58.942627 
	C87.013657,58.910908 69.355591,58.860256 51.697510,58.853626 
	C43.364590,58.850498 40.365017,61.904011 40.302326,70.363312 
	C40.269165,74.838158 40.296459,79.313454 40.296459,84.198532 
	C32.316425,84.198532 24.779926,84.198532 17.066006,84.198532 
	C17.066006,74.173882 16.382387,64.323883 17.264612,54.616188 
	C18.092251,45.509132 27.066864,38.982304 37.009861,38.941402 
	C57.499619,38.857117 77.989906,38.902344 98.974655,38.894279 
z"/>
<path fill="#0E110E" opacity="1.000000" stroke="none" 
	d="
M74.972382,99.064926 
	C74.972374,102.843559 74.972374,106.141045 74.972374,109.793449 
	C66.955818,109.793449 59.396492,109.793449 51.769279,109.793449 
	C51.769279,99.763290 51.007072,89.770416 52.002171,79.955719 
	C52.850628,71.587303 60.529720,65.195084 68.978722,64.874634 
	C81.789352,64.388779 94.629166,64.588242 107.454269,64.720566 
	C108.529022,64.731644 110.454170,66.390244 110.507759,67.364624 
	C110.807060,72.806366 110.651665,78.273109 110.651665,84.364616 
	C103.123383,84.364616 96.171165,84.362106 89.218948,84.365173 
	C77.059189,84.370544 74.983170,86.444000 74.972382,99.064926 
z"/>
<path fill="#0E110E" opacity="1.000000" stroke="none" 
	d="
M16.700550,29.877861 
	C16.692163,24.241035 16.692163,19.094580 16.692163,13.528191 
	C36.431450,13.528191 55.801426,13.528191 75.602829,13.528191 
	C75.602829,19.800190 75.602829,26.159912 75.602829,33.186447 
	C73.080673,33.186447 70.642097,33.186516 68.203522,33.186432 
	C52.552662,33.185913 36.901745,33.205250 21.251013,33.159924 
	C19.270741,33.154186 16.560043,33.988659 16.700550,29.877861 
z"/>
</svg>